<svg width="4" height="6" viewBox="0 0 4 6" fill="none" xmlns="http://www.w3.org/2000/svg">
<g clip-path="url(#clip0_100_13148)">
<path d="M2.98107 3.55069C2.98398 3.15587 2.8279 2.84359 2.51657 2.62307C2.27611 2.45328 1.98431 2.36471 1.70207 2.2796C1.11413 2.10136 0.943576 2.00748 0.943576 1.72632C0.943576 1.41314 1.35058 1.30171 1.69901 1.30171C1.95276 1.30171 2.2447 1.3806 2.426 1.49752L2.78542 0.940855C2.54848 0.787244 2.22419 0.682467 1.90395 0.649947V0.130127H1.2409V0.6864C0.651505 0.816057 0.280215 1.20127 0.280215 1.72632C0.280215 2.09403 0.433014 2.38565 0.733507 2.59133C0.962052 2.74834 1.24078 2.83266 1.51004 2.91431C2.08673 3.08862 2.32091 3.19482 2.31825 3.5466L2.31823 3.54919C2.31823 3.84443 1.92696 3.94938 1.59176 3.94938C1.27511 3.94938 0.930782 3.81061 0.735596 3.60429L0.253906 4.05993C0.501089 4.32135 0.860219 4.50619 1.24089 4.57863V5.12098H1.90395V4.59031C2.55889 4.49655 2.98042 4.10225 2.98107 3.55069Z" fill="white"/>
</g>
<defs>
<clipPath id="clip0_100_13148">
<rect width="2.9945" height="4.99083" fill="white" transform="translate(0.119141 0.130127)"/>
</clipPath>
</defs>
</svg>
