<svg width="320" height="212" viewBox="0 0 320 212" fill="none" xmlns="http://www.w3.org/2000/svg">
<g clip-path="url(#clip0_100_13593)">
<path d="M85.5703 158.825L121.828 122.567L134.051 134.79L105.941 162.9L134.46 191.419L122.238 203.642L85.5703 166.974C83.3203 164.724 83.3203 161.075 85.5703 158.825Z" fill="white" fill-opacity="0.1"/>
<path d="M215.244 203.642L251.911 166.974C254.161 164.724 254.161 161.075 251.911 158.825L215.654 122.567L203.431 134.79L231.54 162.9L203.021 191.419L215.244 203.642Z" fill="white" fill-opacity="0.1"/>
<path d="M188.082 120.372L175.552 117.014C174.401 116.706 173.219 117.389 172.911 118.539L150.441 202.397C150.133 203.548 150.816 204.73 151.966 205.038L164.496 208.396C165.647 208.704 166.829 208.021 167.137 206.871L189.607 123.013C189.915 121.862 189.232 120.68 188.082 120.372Z" fill="#FE5B14"/>
<g filter="url(#filter0_d_100_13593)">
<g filter="url(#filter1_di_100_13593)">
<path fill-rule="evenodd" clip-rule="evenodd" d="M237.27 258.533C218.22 272.96 194.481 281.519 168.742 281.519C105.993 281.519 55.1244 230.65 55.1244 167.9C55.1244 142.16 63.6831 118.421 78.1098 99.3702L237.27 258.533ZM263.32 230.883L105.76 73.3207C123.786 61.2926 145.446 54.2809 168.742 54.2809C231.491 54.2809 282.359 105.15 282.359 167.9C282.359 191.196 275.347 212.856 263.32 230.883ZM320.232 167.9C320.232 251.567 252.407 319.392 168.742 319.392C85.0762 319.392 17.252 251.567 17.252 167.9C17.252 84.2332 85.0762 16.408 168.742 16.408C252.407 16.408 320.232 84.2332 320.232 167.9Z" fill="url(#paint0_linear_100_13593)" shape-rendering="crispEdges"/>
</g>
</g>
</g>
<defs>
<filter id="filter0_d_100_13593" x="-1.2318" y="4.85561" width="339.947" height="339.951" filterUnits="userSpaceOnUse" color-interpolation-filters="sRGB">
<feFlood flood-opacity="0" result="BackgroundImageFix"/>
<feColorMatrix in="SourceAlpha" type="matrix" values="0 0 0 0 0 0 0 0 0 0 0 0 0 0 0 0 0 0 127 0" result="hardAlpha"/>
<feOffset dy="6.93141"/>
<feGaussianBlur stdDeviation="9.24188"/>
<feComposite in2="hardAlpha" operator="out"/>
<feColorMatrix type="matrix" values="0 0 0 0 0 0 0 0 0 0 0 0 0 0 0 0 0 0 0.3 0"/>
<feBlend mode="normal" in2="BackgroundImageFix" result="effect1_dropShadow_100_13593"/>
<feBlend mode="normal" in="SourceGraphic" in2="effect1_dropShadow_100_13593" result="shape"/>
</filter>
<filter id="filter1_di_100_13593" x="5.25195" y="4.40796" width="326.979" height="326.984" filterUnits="userSpaceOnUse" color-interpolation-filters="sRGB">
<feFlood flood-opacity="0" result="BackgroundImageFix"/>
<feColorMatrix in="SourceAlpha" type="matrix" values="0 0 0 0 0 0 0 0 0 0 0 0 0 0 0 0 0 0 127 0" result="hardAlpha"/>
<feMorphology radius="4" operator="erode" in="SourceAlpha" result="effect1_dropShadow_100_13593"/>
<feOffset/>
<feGaussianBlur stdDeviation="8"/>
<feComposite in2="hardAlpha" operator="out"/>
<feColorMatrix type="matrix" values="0 0 0 0 0 0 0 0 0 0 0 0 0 0 0 0 0 0 0.5 0"/>
<feBlend mode="normal" in2="BackgroundImageFix" result="effect1_dropShadow_100_13593"/>
<feBlend mode="normal" in="SourceGraphic" in2="effect1_dropShadow_100_13593" result="shape"/>
<feColorMatrix in="SourceAlpha" type="matrix" values="0 0 0 0 0 0 0 0 0 0 0 0 0 0 0 0 0 0 127 0" result="hardAlpha"/>
<feOffset dy="1"/>
<feGaussianBlur stdDeviation="1"/>
<feComposite in2="hardAlpha" operator="arithmetic" k2="-1" k3="1"/>
<feColorMatrix type="matrix" values="0 0 0 0 0.321569 0 0 0 0 0.317647 0 0 0 0 0.329412 0 0 0 1 0"/>
<feBlend mode="normal" in2="shape" result="effect2_innerShadow_100_13593"/>
</filter>
<linearGradient id="paint0_linear_100_13593" x1="17.252" y1="16.408" x2="277.106" y2="280.572" gradientUnits="userSpaceOnUse">
<stop stop-color="white" stop-opacity="0.12"/>
<stop offset="0.3" stop-color="white" stop-opacity="0.06"/>
<stop offset="1" stop-color="white" stop-opacity="0.02"/>
</linearGradient>
<clipPath id="clip0_100_13593">
<rect width="320" height="283.033" fill="white" transform="translate(0 0.0866699)"/>
</clipPath>
</defs>
</svg>
