<svg width="343" height="232" viewBox="0 0 343 232" fill="none" xmlns="http://www.w3.org/2000/svg">
<g clip-path="url(#clip0_100_13591)">
<g opacity="0.7" clip-path="url(#clip1_100_13591)">
<g clip-path="url(#clip2_100_13591)">
<path d="M108.57 178.825L144.828 142.567L157.051 154.79L128.941 182.9L157.46 211.419L145.238 223.642L108.57 186.974C106.32 184.724 106.32 181.075 108.57 178.825Z" fill="white" fill-opacity="0.1"/>
<path d="M238.244 223.642L274.911 186.974C277.161 184.724 277.161 181.075 274.911 178.825L238.654 142.567L226.431 154.79L254.54 182.9L226.021 211.419L238.244 223.642Z" fill="white" fill-opacity="0.1"/>
<path d="M211.082 140.372L198.552 137.014C197.401 136.706 196.219 137.389 195.911 138.539L173.441 222.397C173.133 223.548 173.816 224.73 174.966 225.038L187.496 228.396C188.647 228.704 189.829 228.021 190.137 226.871L212.607 143.013C212.915 141.862 212.232 140.68 211.082 140.372Z" fill="#FE5B14"/>
<g filter="url(#filter0_d_100_13591)">
<g filter="url(#filter1_di_100_13591)">
<path fill-rule="evenodd" clip-rule="evenodd" d="M260.27 278.533C241.22 292.96 217.481 301.519 191.742 301.519C128.993 301.519 78.1244 250.65 78.1244 187.9C78.1244 162.16 86.6831 138.421 101.11 119.37L260.27 278.533ZM286.32 250.883L128.76 93.3207C146.786 81.2926 168.446 74.2809 191.742 74.2809C254.491 74.2809 305.359 125.15 305.359 187.9C305.359 211.196 298.347 232.856 286.32 250.883ZM343.232 187.9C343.232 271.567 275.407 339.392 191.742 339.392C108.076 339.392 40.252 271.567 40.252 187.9C40.252 104.233 108.076 36.408 191.742 36.408C275.407 36.408 343.232 104.233 343.232 187.9Z" fill="url(#paint0_linear_100_13591)" shape-rendering="crispEdges"/>
</g>
</g>
</g>
</g>
<rect y="158" width="432" height="74" fill="url(#paint1_linear_100_13591)"/>
<rect y="158" width="432" height="74" fill="url(#paint2_linear_100_13591)"/>
<rect y="158" width="432" height="74" fill="url(#paint3_linear_100_13591)"/>
</g>
<defs>
<filter id="filter0_d_100_13591" x="21.7682" y="24.8556" width="339.947" height="339.951" filterUnits="userSpaceOnUse" color-interpolation-filters="sRGB">
<feFlood flood-opacity="0" result="BackgroundImageFix"/>
<feColorMatrix in="SourceAlpha" type="matrix" values="0 0 0 0 0 0 0 0 0 0 0 0 0 0 0 0 0 0 127 0" result="hardAlpha"/>
<feOffset dy="6.93141"/>
<feGaussianBlur stdDeviation="9.24188"/>
<feComposite in2="hardAlpha" operator="out"/>
<feColorMatrix type="matrix" values="0 0 0 0 0 0 0 0 0 0 0 0 0 0 0 0 0 0 0.3 0"/>
<feBlend mode="normal" in2="BackgroundImageFix" result="effect1_dropShadow_100_13591"/>
<feBlend mode="normal" in="SourceGraphic" in2="effect1_dropShadow_100_13591" result="shape"/>
</filter>
<filter id="filter1_di_100_13591" x="28.252" y="24.408" width="326.979" height="326.984" filterUnits="userSpaceOnUse" color-interpolation-filters="sRGB">
<feFlood flood-opacity="0" result="BackgroundImageFix"/>
<feColorMatrix in="SourceAlpha" type="matrix" values="0 0 0 0 0 0 0 0 0 0 0 0 0 0 0 0 0 0 127 0" result="hardAlpha"/>
<feMorphology radius="4" operator="erode" in="SourceAlpha" result="effect1_dropShadow_100_13591"/>
<feOffset/>
<feGaussianBlur stdDeviation="8"/>
<feComposite in2="hardAlpha" operator="out"/>
<feColorMatrix type="matrix" values="0 0 0 0 0 0 0 0 0 0 0 0 0 0 0 0 0 0 0.5 0"/>
<feBlend mode="normal" in2="BackgroundImageFix" result="effect1_dropShadow_100_13591"/>
<feBlend mode="normal" in="SourceGraphic" in2="effect1_dropShadow_100_13591" result="shape"/>
<feColorMatrix in="SourceAlpha" type="matrix" values="0 0 0 0 0 0 0 0 0 0 0 0 0 0 0 0 0 0 127 0" result="hardAlpha"/>
<feOffset dy="1"/>
<feGaussianBlur stdDeviation="1"/>
<feComposite in2="hardAlpha" operator="arithmetic" k2="-1" k3="1"/>
<feColorMatrix type="matrix" values="0 0 0 0 0.321569 0 0 0 0 0.317647 0 0 0 0 0.329412 0 0 0 1 0"/>
<feBlend mode="normal" in2="shape" result="effect2_innerShadow_100_13591"/>
</filter>
<linearGradient id="paint0_linear_100_13591" x1="40.252" y1="36.408" x2="300.106" y2="300.572" gradientUnits="userSpaceOnUse">
<stop stop-color="white" stop-opacity="0.12"/>
<stop offset="0.3" stop-color="white" stop-opacity="0.06"/>
<stop offset="1" stop-color="white" stop-opacity="0.02"/>
</linearGradient>
<linearGradient id="paint1_linear_100_13591" x1="216" y1="232" x2="216" y2="158" gradientUnits="userSpaceOnUse">
<stop stop-color="#101010"/>
<stop offset="1" stop-color="#101010" stop-opacity="0"/>
</linearGradient>
<linearGradient id="paint2_linear_100_13591" x1="216" y1="232" x2="216" y2="158" gradientUnits="userSpaceOnUse">
<stop stop-color="#101010"/>
<stop offset="1" stop-color="#101010" stop-opacity="0"/>
</linearGradient>
<linearGradient id="paint3_linear_100_13591" x1="216" y1="232" x2="216" y2="158" gradientUnits="userSpaceOnUse">
<stop stop-color="#101010"/>
<stop offset="1" stop-color="#101010" stop-opacity="0"/>
</linearGradient>
<clipPath id="clip0_100_13591">
<rect width="343" height="232" fill="white"/>
</clipPath>
<clipPath id="clip1_100_13591">
<rect width="320" height="291.119" fill="white" transform="translate(23 12)"/>
</clipPath>
<clipPath id="clip2_100_13591">
<rect width="320" height="283.033" fill="white" transform="translate(23 20.0867)"/>
</clipPath>
</defs>
</svg>
