<svg width="32" height="32" viewBox="0 0 32 32" fill="none" xmlns="http://www.w3.org/2000/svg">
<path d="M1.56437 15.2929L7.85727 9L9.97859 11.1213L5.09991 16L10.0497 20.9498L7.92834 23.0711L1.56437 16.7071C1.17385 16.3166 1.17385 15.6834 1.56437 15.2929Z" fill="white" fill-opacity="0.4"/>
<path d="M24.0706 23.0711L30.4345 16.7071C30.8251 16.3166 30.8251 15.6834 30.4345 15.2929L24.1416 9L22.0203 11.1213L26.899 16L21.9492 20.9498L24.0706 23.0711Z" fill="white" fill-opacity="0.4"/>
<path d="M19.3299 10.1648C19.5443 9.3646 19.0694 8.54209 18.2692 8.32768C17.469 8.11327 16.6465 8.58814 16.4321 9.38834L13.115 21.7677C12.9006 22.5679 13.3755 23.3905 14.1757 23.6049C14.9759 23.8193 15.7984 23.3444 16.0128 22.5442L19.3299 10.1648Z" fill="#FE5B14"/>
</svg>
