<svg width="32" height="32" viewBox="0 0 32 32" fill="none" xmlns="http://www.w3.org/2000/svg">
<path d="M27 2.5H5C3.61929 2.5 2.5 3.61929 2.5 5V20C2.5 21.3807 3.61929 22.5 5 22.5H27C28.3807 22.5 29.5 21.3807 29.5 20V5C29.5 3.61929 28.3807 2.5 27 2.5Z" stroke="white" stroke-opacity="0.4" stroke-width="3"/>
<path d="M18 24H14V28H18V24Z" fill="white" fill-opacity="0.4"/>
<path d="M24.5 28H7.5C6.67157 28 6 28.6716 6 29.5C6 30.3284 6.67157 31 7.5 31H24.5C25.3284 31 26 30.3284 26 29.5C26 28.6716 25.3284 28 24.5 28Z" fill="white" fill-opacity="0.4"/>
<path d="M22.5 8H9.5C8.67157 8 8 8.67157 8 9.5C8 10.3284 8.67157 11 9.5 11H22.5C23.3284 11 24 10.3284 24 9.5C24 8.67157 23.3284 8 22.5 8Z" fill="#FE5B14"/>
<path d="M15.5 14H9.5C8.67157 14 8 14.6716 8 15.5C8 16.3284 8.67157 17 9.5 17H15.5C16.3284 17 17 16.3284 17 15.5C17 14.6716 16.3284 14 15.5 14Z" fill="#FE5B14"/>
</svg>
