<svg width="5" height="5" viewBox="0 0 5 5" fill="none" xmlns="http://www.w3.org/2000/svg">
<g clip-path="url(#clip0_100_13457)">
<path d="M3.26836 1.97266C3.26836 1.97266 3.17797 3.09369 3.12554 3.56593C3.10058 3.79146 2.96126 3.92362 2.73305 3.92779C2.29878 3.9356 1.86401 3.9361 1.4299 3.92696C1.21036 3.92247 1.07337 3.78864 1.0489 3.56708C0.996133 3.0907 0.90625 1.97266 0.90625 1.97266" stroke="#FF5E5E" stroke-width="0.24949" stroke-linecap="round" stroke-linejoin="round"/>
<path d="M3.49887 1.43604H0.675781" stroke="#FF5E5E" stroke-width="0.24949" stroke-linecap="round" stroke-linejoin="round"/>
<path d="M2.95706 1.43621C2.82627 1.43621 2.71368 1.34375 2.68801 1.21564L2.64753 1.01307C2.62254 0.919618 2.53792 0.85498 2.44146 0.85498H1.73629C1.63984 0.85498 1.55521 0.919618 1.53022 1.01307L1.48974 1.21564C1.46409 1.34375 1.35147 1.43621 1.2207 1.43621" stroke="#FF5E5E" stroke-width="0.24949" stroke-linecap="round" stroke-linejoin="round"/>
</g>
<defs>
<clipPath id="clip0_100_13457">
<rect width="3.99266" height="3.99266" fill="white" transform="translate(0.0527344 0.397949)"/>
</clipPath>
</defs>
</svg>
