<svg width="153" height="23" viewBox="0 0 153 23" fill="none" xmlns="http://www.w3.org/2000/svg">
<g clip-path="url(#clip0_86_7786)">
<mask id="mask0_86_7786" style="mask-type:luminance" maskUnits="userSpaceOnUse" x="-2" y="0" width="157" height="23">
<path d="M154.104 0.161377H-1.91016V22.9134H154.104V0.161377Z" fill="white"/>
</mask>
<g mask="url(#mask0_86_7786)">
<path d="M-0.285156 22.3722V19.4831L14.9912 5.03735L30.2676 12.2602L45.5439 8.64879L60.8203 12.2602L76.0967 9.37108L91.3731 13.7048L106.649 10.0934L121.926 12.2602L137.202 8.64879L152.479 5.03735V22.3722" fill="url(#paint0_linear_86_7786)"/>
</g>
<mask id="mask1_86_7786" style="mask-type:luminance" maskUnits="userSpaceOnUse" x="-2" y="0" width="157" height="23">
<path d="M154.104 0.161377H-1.91016V22.9134H154.104V0.161377Z" fill="white"/>
</mask>
<g mask="url(#mask1_86_7786)">
<path d="M-0.285156 19.4831L14.9912 5.03735L30.2676 12.2602L45.5439 8.64879L60.8203 12.2602L76.0967 9.37108L91.3731 13.7048L106.649 10.0934L121.926 12.2602L137.202 8.64879L152.479 5.03735" stroke="#FF5E5E" stroke-width="1.08343"/>
<path d="M-0.285156 19.4831L14.9912 5.03735L30.2676 12.2602L45.5439 8.64879L60.8203 12.2602L76.0967 9.37108L91.3731 13.7048L106.649 10.0934L121.926 12.2602L137.202 8.64879L152.479 5.03735" stroke="url(#paint1_linear_86_7786)" stroke-width="1.08343"/>
</g>
</g>
<defs>
<linearGradient id="paint0_linear_86_7786" x1="-0.285156" y1="5.03735" x2="-0.285156" y2="22.3722" gradientUnits="userSpaceOnUse">
<stop stop-color="#FF5E5E" stop-opacity="0.5"/>
<stop offset="0.006" stop-color="#FF5E5E" stop-opacity="0.5"/>
<stop offset="1" stop-color="white" stop-opacity="0"/>
</linearGradient>
<linearGradient id="paint1_linear_86_7786" x1="-0.285156" y1="12.2602" x2="152.479" y2="12.2603" gradientUnits="userSpaceOnUse">
<stop stop-color="#ED1816"/>
<stop offset="0.633498" stop-color="#F84215"/>
<stop offset="1" stop-color="#FE5B14"/>
</linearGradient>
<clipPath id="clip0_86_7786">
<rect width="152.222" height="21.6686" fill="white" transform="translate(0.256836 0.703613)"/>
</clipPath>
</defs>
</svg>
