<svg width="32" height="32" viewBox="0 0 32 32" fill="none" xmlns="http://www.w3.org/2000/svg">
<path fill-rule="evenodd" clip-rule="evenodd" d="M22.8266 25C23.1259 24.7438 23.3333 24.3719 23.3333 24C23.3333 22.6667 24.6667 20 25.9793 18.6667C27.2919 17.3333 28 14.4669 28 12C28 5.37258 22.6274 0 16 0C9.37258 0 4 5.37258 4 12C4 14.4669 4.70813 17.3333 6.02073 18.6667C7.33333 20 8.66667 22.6667 8.66667 24C8.66667 24.3719 8.87415 24.7438 9.17337 25C9.4105 25.203 9.70525 25.3333 10 25.3333H22C22.2948 25.3333 22.5895 25.203 22.8266 25ZM12.0206 28.3333C12.1847 29.6488 13.3068 30.6667 14.6667 30.6667H17.3333C18.6932 30.6667 19.8153 29.6488 19.9794 28.3333C19.993 28.2241 20 28.1129 20 28H12C12 28.1129 12.007 28.2241 12.0206 28.3333ZM11.4278 22.3333C11.2023 21.4785 10.8505 20.6578 10.522 19.9973C9.93324 18.8136 9.10372 17.5221 8.15861 16.562C8.00446 16.4054 7.67983 15.9024 7.4023 14.9328C7.14211 14.0238 7 12.9694 7 12C7 7.02944 11.0294 3 16 3C20.9706 3 25 7.02944 25 12C25 12.9694 24.8579 14.0238 24.5977 14.9328C24.3202 15.9024 23.9955 16.4054 23.8414 16.562C22.8963 17.5221 22.0668 18.8136 21.478 19.9973C21.1495 20.6578 20.7977 21.4785 20.5722 22.3333H11.4278Z" fill="#7C7C7C"/>
<path fill-rule="evenodd" clip-rule="evenodd" d="M15.3353 6.23065C15.6201 6.90973 15.3004 7.6911 14.6213 7.97587C13.1771 8.58152 12.1667 10.0077 12.1667 11.6668C12.1667 12.4032 11.5697 13.0001 10.8333 13.0001C10.097 13.0001 9.5 12.4032 9.5 11.6668C9.5 8.89609 11.1899 6.52317 13.5901 5.51668C14.2691 5.23191 15.0505 5.55156 15.3353 6.23065Z" fill="#FE5B14"/>
</svg>
