<svg width="6" height="6" viewBox="0 0 6 6" fill="none" xmlns="http://www.w3.org/2000/svg">
<g clip-path="url(#clip0_100_13230)">
<path d="M5.06332 1.09708H4.87525V0.94112C4.87525 0.899756 4.85883 0.860086 4.82955 0.830837C4.80031 0.801588 4.76066 0.785156 4.71928 0.785156C4.67791 0.785156 4.63826 0.801588 4.60901 0.830837C4.57974 0.860086 4.56332 0.899756 4.56332 0.94112V1.09708H3.62754V0.94112C3.62754 0.899756 3.61112 0.860086 3.58185 0.830837C3.5526 0.801588 3.51295 0.785156 3.47157 0.785156C3.43021 0.785156 3.39054 0.801588 3.36129 0.830837C3.33204 0.860086 3.31561 0.899756 3.31561 0.94112V1.09708H2.37983V0.94112C2.37983 0.899756 2.3634 0.860086 2.33415 0.830837C2.3049 0.801588 2.26523 0.785156 2.22387 0.785156C2.1825 0.785156 2.14283 0.801588 2.11358 0.830837C2.08434 0.860086 2.0679 0.899756 2.0679 0.94112V1.09708H1.87981C1.72295 1.09733 1.57259 1.15975 1.46167 1.27067C1.35076 1.38159 1.28833 1.53195 1.28809 1.68881V4.87232C1.28833 5.02918 1.35076 5.17956 1.46167 5.29048C1.57259 5.4014 1.72295 5.46381 1.87981 5.46406H5.06332C5.22019 5.46381 5.37056 5.4014 5.48148 5.29048C5.5924 5.17956 5.65481 5.02918 5.65506 4.87232V1.68881C5.65481 1.53195 5.5924 1.38159 5.48148 1.27067C5.37056 1.15975 5.22019 1.09733 5.06332 1.09708ZM5.34314 4.87232C5.34289 4.94646 5.31334 5.01748 5.26091 5.06991C5.20848 5.12234 5.13746 5.15188 5.06332 5.15213H1.87981C1.80568 5.15188 1.73466 5.12234 1.68224 5.06991C1.62982 5.01748 1.60026 4.94646 1.60001 4.87232V1.68881C1.60026 1.61468 1.62982 1.54365 1.68224 1.49123C1.73466 1.43882 1.80568 1.40926 1.87981 1.40901H2.0679V1.56497C2.0679 1.60634 2.08434 1.64601 2.11358 1.67526C2.14283 1.7045 2.1825 1.72094 2.22387 1.72094C2.26523 1.72094 2.3049 1.7045 2.33415 1.67526C2.3634 1.64601 2.37983 1.60634 2.37983 1.56497V1.40901H3.31561V1.56497C3.31561 1.60634 3.33204 1.64601 3.36129 1.67526C3.39054 1.7045 3.43021 1.72094 3.47157 1.72094C3.51295 1.72094 3.5526 1.7045 3.58185 1.67526C3.61112 1.64601 3.62754 1.60634 3.62754 1.56497V1.40901H4.56332V1.56497C4.56332 1.60634 4.57974 1.64601 4.60901 1.67526C4.63826 1.7045 4.67791 1.72094 4.71928 1.72094C4.76066 1.72094 4.80031 1.7045 4.82955 1.67526C4.85883 1.64601 4.87525 1.60634 4.87525 1.56497V1.40901H5.06332C5.13746 1.40926 5.20848 1.43882 5.26091 1.49123C5.31334 1.54365 5.34289 1.61468 5.34314 1.68881V4.87232Z" fill="white"/>
<path d="M2.89434 2.39029L2.53608 2.74856L2.33406 2.54654C2.31964 2.53162 2.3024 2.51971 2.28334 2.51152C2.26428 2.50333 2.24378 2.49902 2.22303 2.49884C2.20228 2.49866 2.18171 2.50262 2.16251 2.51047C2.14331 2.51833 2.12586 2.52993 2.11119 2.5446C2.09652 2.55927 2.08492 2.57672 2.07706 2.59592C2.06921 2.61512 2.06526 2.63569 2.06544 2.65644C2.06562 2.67718 2.06993 2.69769 2.07811 2.71675C2.0863 2.73581 2.09821 2.75305 2.11313 2.76746L2.42561 3.07995C2.45491 3.10924 2.49465 3.12569 2.53608 3.12569C2.57751 3.12569 2.61724 3.10924 2.64654 3.07995L3.11527 2.61122C3.14373 2.58175 3.15948 2.54229 3.15912 2.50132C3.15877 2.46035 3.14233 2.42117 3.11336 2.3922C3.0844 2.36323 3.04521 2.3468 3.00424 2.34644C2.96328 2.34608 2.92381 2.36183 2.89434 2.39029Z" fill="white"/>
<path d="M4.71932 2.65601H3.62593C3.58449 2.65601 3.54478 2.67246 3.51549 2.70176C3.48617 2.73105 3.46973 2.77078 3.46973 2.81221C3.46973 2.85363 3.48617 2.89336 3.51549 2.92265C3.54478 2.95195 3.58449 2.9684 3.62593 2.9684H4.71932C4.76076 2.9684 4.80047 2.95195 4.82976 2.92265C4.85908 2.89336 4.87552 2.85363 4.87552 2.81221C4.87552 2.77078 4.85908 2.73105 4.82976 2.70176C4.80047 2.67246 4.76076 2.65601 4.71932 2.65601Z" fill="white"/>
<path d="M2.89434 3.79337L2.53608 4.15162L2.33406 3.94961C2.31964 3.93468 2.3024 3.92278 2.28334 3.91461C2.26428 3.90641 2.24378 3.90211 2.22303 3.90191C2.20228 3.90174 2.18171 3.90569 2.16251 3.91356C2.14331 3.92141 2.12586 3.93301 2.11119 3.94768C2.09652 3.96236 2.08492 3.97978 2.07706 3.99898C2.06921 4.0182 2.06526 4.03878 2.06544 4.0595C2.06562 4.08025 2.06993 4.10075 2.07811 4.11982C2.0863 4.1389 2.09821 4.15612 2.11313 4.17055L2.42561 4.48303C2.45491 4.51231 2.49465 4.52878 2.53608 4.52878C2.57751 4.52878 2.61724 4.51231 2.64654 4.48303L3.11527 4.0143C3.14373 3.98483 3.15948 3.94536 3.15912 3.90439C3.15877 3.86344 3.14233 3.82424 3.11336 3.79527C3.0844 3.76632 3.04521 3.74987 3.00424 3.74952C2.96328 3.74917 2.92381 3.76492 2.89434 3.79337Z" fill="white"/>
<path d="M4.71932 4.05933H3.62593C3.58449 4.05933 3.54478 4.07577 3.51549 4.10509C3.48617 4.13438 3.46973 4.17409 3.46973 4.21553C3.46973 4.25696 3.48617 4.29667 3.51549 4.32596C3.54478 4.35528 3.58449 4.37172 3.62593 4.37172H4.71932C4.76076 4.37172 4.80047 4.35528 4.82976 4.32596C4.85908 4.29667 4.87552 4.25696 4.87552 4.21553C4.87552 4.17409 4.85908 4.13438 4.82976 4.10509C4.80047 4.07577 4.76076 4.05933 4.71932 4.05933Z" fill="white"/>
</g>
<defs>
<clipPath id="clip0_100_13230">
<rect width="4.99083" height="4.99083" fill="white" transform="translate(0.975586 0.628906)"/>
</clipPath>
</defs>
</svg>
