<svg width="3" height="5" viewBox="0 0 3 5" fill="none" xmlns="http://www.w3.org/2000/svg">
<g clip-path="url(#clip0_100_13383)">
<path d="M0.825282 0.956055H0.575195V1.20614H0.825282V0.956055Z" fill="#888888"/>
<path d="M0.825282 1.7041H0.575195V1.95419H0.825282V1.7041Z" fill="#888888"/>
<path d="M0.825282 2.45264H0.575195V2.70272H0.825282V2.45264Z" fill="#888888"/>
<path d="M0.825282 3.20117H0.575195V3.45126H0.825282V3.20117Z" fill="#888888"/>
<path d="M0.825282 3.9502H0.575195V4.20028H0.825282V3.9502Z" fill="#888888"/>
<path d="M0.825282 4.69824H0.575195V4.94833H0.825282V4.69824Z" fill="#888888"/>
<path d="M1.82333 0.956055H1.57324V1.20614H1.82333V0.956055Z" fill="#888888"/>
<path d="M1.82333 1.70386H1.57324V1.95394H1.82333V1.70386Z" fill="#888888"/>
<path d="M1.82333 2.45264H1.57324V2.70272H1.82333V2.45264Z" fill="#888888"/>
<path d="M1.82333 3.20117H1.57324V3.45126H1.82333V3.20117Z" fill="#888888"/>
<path d="M1.82333 3.9502H1.57324V4.20028H1.82333V3.9502Z" fill="#888888"/>
<path d="M1.82333 4.69824H1.57324V4.94833H1.82333V4.69824Z" fill="#888888"/>
<path d="M2.82138 0.955811H2.57129V1.2059H2.82138V0.955811Z" fill="#888888"/>
<path d="M2.82138 1.7041H2.57129V1.95419H2.82138V1.7041Z" fill="#888888"/>
<path d="M2.82138 2.45264H2.57129V2.70272H2.82138V2.45264Z" fill="#888888"/>
<path d="M2.82138 3.20117H2.57129V3.45126H2.82138V3.20117Z" fill="#888888"/>
<path d="M2.82138 3.94995H2.57129V4.20004H2.82138V3.94995Z" fill="#888888"/>
<path d="M2.82138 4.69824H2.57129V4.94833H2.82138V4.69824Z" fill="#888888"/>
</g>
<defs>
<clipPath id="clip0_100_13383">
<rect width="2.24587" height="3.99266" fill="white" transform="translate(0.575195 0.956055)"/>
</clipPath>
</defs>
</svg>
