<svg width="27" height="24" viewBox="0 0 27 24" fill="none" xmlns="http://www.w3.org/2000/svg">
<path d="M16.0488 2.31787C18.2539 2.31787 20.4062 2.99314 22.2161 4.25285C24.0259 5.51256 25.4066 7.2963 26.1725 9.36415L24.1478 10.114C23.5351 8.45975 22.4305 7.03276 20.9826 6.02499C19.5347 5.01722 17.8129 4.47701 16.0488 4.47701V2.31787Z" fill="#3AC977"/>
<path d="M16.0488 2.31787C18.2539 2.31787 20.4062 2.99314 22.2161 4.25285C24.0259 5.51256 25.4066 7.2963 26.1725 9.36415L24.1478 10.114C23.5351 8.45975 22.4305 7.03276 20.9826 6.02499C19.5347 5.01722 17.8129 4.47701 16.0488 4.47701V2.31787Z" fill="url(#paint0_linear_100_13157)"/>
<path d="M26.1722 9.3645C27.1337 11.9605 27.0611 14.8267 25.9694 17.3707C24.8776 19.9147 22.8503 21.9421 20.3063 23.0338C17.7623 24.1255 14.8961 24.1981 12.3001 23.2367C9.70403 22.2752 7.57659 20.3532 6.35742 17.8677L8.29578 16.9169C9.27111 18.9053 10.9731 20.4429 13.0499 21.2121C15.1267 21.9812 17.4197 21.9231 19.4549 21.0498C21.4901 20.1764 23.112 18.5545 23.9853 16.5193C24.8587 14.4841 24.9168 12.1912 24.1476 10.1143L26.1722 9.3645Z" fill="url(#paint1_linear_100_13157)"/>
<g filter="url(#filter0_di_100_13157)">
<path d="M6.35713 17.8678C5.54989 16.2221 5.17498 14.398 5.26774 12.5673C5.3605 10.7367 5.91788 8.95977 6.88733 7.40412C7.85679 5.84846 9.20641 4.56528 10.809 3.67551C12.4115 2.78573 14.2143 2.31868 16.0473 2.31836L16.0477 4.47741C14.5813 4.47767 13.1391 4.85131 11.857 5.56313C10.575 6.27495 9.49527 7.30149 8.7197 8.54602C7.94413 9.79054 7.49823 11.2121 7.42403 12.6766C7.34982 14.1411 7.64975 15.6004 8.29554 16.917L6.35713 17.8678Z" fill="black"/>
</g>
<defs>
<filter id="filter0_di_100_13157" x="0.0581638" y="-2.87738" width="21.1854" height="25.9408" filterUnits="userSpaceOnUse" color-interpolation-filters="sRGB">
<feFlood flood-opacity="0" result="BackgroundImageFix"/>
<feColorMatrix in="SourceAlpha" type="matrix" values="0 0 0 0 0 0 0 0 0 0 0 0 0 0 0 0 0 0 127 0" result="hardAlpha"/>
<feMorphology radius="1.73191" operator="erode" in="SourceAlpha" result="effect1_dropShadow_100_13157"/>
<feOffset/>
<feGaussianBlur stdDeviation="3.46383"/>
<feComposite in2="hardAlpha" operator="out"/>
<feColorMatrix type="matrix" values="0 0 0 0 0 0 0 0 0 0 0 0 0 0 0 0 0 0 0.5 0"/>
<feBlend mode="normal" in2="BackgroundImageFix" result="effect1_dropShadow_100_13157"/>
<feBlend mode="normal" in="SourceGraphic" in2="effect1_dropShadow_100_13157" result="shape"/>
<feColorMatrix in="SourceAlpha" type="matrix" values="0 0 0 0 0 0 0 0 0 0 0 0 0 0 0 0 0 0 127 0" result="hardAlpha"/>
<feOffset dy="0.432979"/>
<feGaussianBlur stdDeviation="0.432979"/>
<feComposite in2="hardAlpha" operator="arithmetic" k2="-1" k3="1"/>
<feColorMatrix type="matrix" values="0 0 0 0 0.321569 0 0 0 0 0.317647 0 0 0 0 0.329412 0 0 0 1 0"/>
<feBlend mode="normal" in2="shape" result="effect2_innerShadow_100_13157"/>
</filter>
<linearGradient id="paint0_linear_100_13157" x1="16.0488" y1="6.21595" x2="26.1725" y2="6.21595" gradientUnits="userSpaceOnUse">
<stop stop-color="#ED1816"/>
<stop offset="0.633498" stop-color="#F84215"/>
<stop offset="1" stop-color="#FE5B14"/>
</linearGradient>
<linearGradient id="paint1_linear_100_13157" x1="6.35742" y1="16.6366" x2="26.8442" y2="16.6366" gradientUnits="userSpaceOnUse">
<stop stop-color="#ED1816"/>
<stop offset="0.633498" stop-color="#F84215"/>
<stop offset="1" stop-color="#FE5B14"/>
</linearGradient>
</defs>
</svg>
