<svg width="343" height="241" viewBox="0 0 343 241" fill="none" xmlns="http://www.w3.org/2000/svg">
<g clip-path="url(#clip0_100_13564)">
<path opacity="0.3" d="M294.836 201.925C294.836 133.916 239.238 78.772 170.644 78.772C102.049 78.772 46.4395 133.916 46.4395 201.925C46.4395 269.934 102.037 325.066 170.644 325.066C239.238 325.066 294.836 269.934 294.836 201.925Z" stroke="url(#paint0_linear_100_13564)" stroke-width="1.64062" stroke-miterlimit="10"/>
<path opacity="0.3" d="M331.176 206.172C331.176 118.881 259.695 48.125 171.489 48.125C83.3053 48.125 11.8125 118.881 11.8125 206.172C11.8125 293.462 83.3053 364.219 171.5 364.219C259.683 364.219 331.188 293.462 331.188 206.172H331.176Z" stroke="url(#paint1_linear_100_13564)" stroke-width="1.64062" stroke-miterlimit="10"/>
<path opacity="0.3" d="M361.799 206.872C361.799 102.365 276.119 17.6528 170.393 17.6528C64.6934 17.6528 -21 102.365 -21 206.872C-21 311.379 64.6934 396.09 170.406 396.09C276.105 396.09 361.812 311.379 361.812 206.872H361.799Z" stroke="url(#paint2_linear_100_13564)" stroke-width="1.64062" stroke-miterlimit="10"/>
</g>
<defs>
<linearGradient id="paint0_linear_100_13564" x1="45.9405" y1="201.961" x2="295.288" y2="201.961" gradientUnits="userSpaceOnUse">
<stop stop-color="#A3A7B1" stop-opacity="0"/>
<stop offset="0.49" stop-color="#A3A7B1"/>
<stop offset="1" stop-color="#A3A7B1" stop-opacity="0"/>
</linearGradient>
<linearGradient id="paint1_linear_100_13564" x1="11.171" y1="206.229" x2="331.76" y2="206.229" gradientUnits="userSpaceOnUse">
<stop stop-color="#A3A7B1" stop-opacity="0"/>
<stop offset="0.49" stop-color="#A3A7B1"/>
<stop offset="1" stop-color="#A3A7B1" stop-opacity="0"/>
</linearGradient>
<linearGradient id="paint2_linear_100_13564" x1="-21.7689" y1="206.94" x2="362.499" y2="206.94" gradientUnits="userSpaceOnUse">
<stop stop-color="#A3A7B1" stop-opacity="0"/>
<stop offset="0.49" stop-color="#A3A7B1"/>
<stop offset="1" stop-color="#A3A7B1" stop-opacity="0"/>
</linearGradient>
<clipPath id="clip0_100_13564">
<rect width="455" height="313" fill="white" transform="translate(-56)"/>
</clipPath>
</defs>
</svg>
