<svg width="19" height="18" viewBox="0 0 19 18" fill="none" xmlns="http://www.w3.org/2000/svg">
<path fill-rule="evenodd" clip-rule="evenodd" d="M7.21159 15.5796C7.21159 15.3877 7.28779 15.2037 7.42344 15.0681C7.55909 14.9325 7.74306 14.8563 7.9349 14.8563H10.8281C11.02 14.8563 11.2039 14.9325 11.3396 15.0681C11.4752 15.2037 11.5514 15.3877 11.5514 15.5796C11.5514 15.7714 11.4752 15.9554 11.3396 16.091C11.2039 16.2267 11.02 16.3029 10.8281 16.3029H7.9349C7.74306 16.3029 7.55909 16.2267 7.42344 16.091C7.28779 15.9554 7.21159 15.7714 7.21159 15.5796ZM7.21159 11.5471C7.40342 11.5471 7.5874 11.6233 7.72304 11.759C7.85869 11.8946 7.9349 12.0786 7.9349 12.2704V12.5583C7.9349 12.8288 8.15406 13.048 8.42458 13.048H10.3384C10.4683 13.048 10.5929 12.9964 10.6847 12.9046C10.7765 12.8127 10.8281 12.6882 10.8281 12.5583V12.3247C10.8281 12.1328 10.9043 11.9489 11.04 11.8132C11.1756 11.6776 11.3596 11.6014 11.5514 11.6014C11.7433 11.6014 11.9272 11.6776 12.0629 11.8132C12.1985 11.9489 12.2747 12.1328 12.2747 12.3247V12.5583C12.2748 12.8126 12.2248 13.0644 12.1275 13.2994C12.0303 13.5344 11.8876 13.7479 11.7078 13.9277C11.528 14.1075 11.3145 14.2501 11.0795 14.3474C10.8446 14.4447 10.5928 14.4947 10.3384 14.4946H8.42458C8.17027 14.4947 7.91844 14.4447 7.68348 14.3474C7.44851 14.2501 7.23502 14.1075 7.0552 13.9277C6.87538 13.7479 6.73275 13.5344 6.63548 13.2994C6.5382 13.0644 6.48819 12.8126 6.48828 12.5583V12.2704C6.48828 12.0786 6.56449 11.8946 6.70013 11.759C6.83578 11.6233 7.01976 11.5471 7.21159 11.5471Z" fill="#FE5B14"/>
<path d="M10.9935 12.5753C11.0926 12.8791 11.4202 13.0483 11.7132 12.9196C12.9309 12.3836 13.9268 11.4443 14.533 10.26C15.1393 9.07562 15.3189 7.71853 15.0415 6.41726C14.7642 5.11599 14.0469 3.95003 13.0105 3.11577C11.974 2.2815 10.6817 1.82989 9.35127 1.837C8.02079 1.8441 6.73341 2.30949 5.70593 3.15477C4.67845 4.00006 3.97366 5.17361 3.71025 6.47777C3.44684 7.78193 3.6409 9.13702 4.25976 10.3148C4.87861 11.4926 5.88445 12.4212 7.10787 12.9441C7.40153 13.07 7.72774 12.8979 7.82394 12.5926L7.88687 12.3915C7.98235 12.087 7.8102 11.7652 7.52088 11.6306C6.61003 11.2076 5.87047 10.4869 5.42404 9.58729C4.97761 8.68769 4.85095 7.66284 5.06492 6.68161C5.2789 5.70039 5.82075 4.82132 6.60119 4.18926C7.38164 3.5572 8.35411 3.20985 9.35838 3.20445C10.3627 3.19905 11.3388 3.53592 12.126 4.15955C12.9132 4.78317 13.4645 5.65636 13.689 6.63523C13.9135 7.6141 13.7979 8.64025 13.3612 9.5446C12.9244 10.449 12.1927 11.1776 11.2864 11.6104C10.9978 11.7478 10.8293 12.0711 10.9284 12.3756L10.9935 12.5753Z" fill="#FE5B14"/>
</svg>
