<svg width="18" height="19" viewBox="0 0 18 19" fill="none" xmlns="http://www.w3.org/2000/svg">
<g filter="url(#filter0_di_100_13462)">
<rect x="5.47461" y="6.11108" width="6.98615" height="6.98615" rx="1.49694" fill="url(#paint0_linear_100_13462)" shape-rendering="crispEdges"/>
<g clip-path="url(#clip0_100_13462)">
<path d="M9.25781 10.7976H10.4662" stroke="#0D99FF" stroke-width="0.24949" stroke-linecap="round" stroke-linejoin="round"/>
<path fill-rule="evenodd" clip-rule="evenodd" d="M9.09883 8.02977C9.22795 7.87545 9.46008 7.85282 9.6176 7.97932C9.62632 7.98619 9.90615 8.20357 9.90615 8.20357C10.0792 8.30818 10.133 8.53058 10.026 8.7003C10.0203 8.70939 8.43825 10.6883 8.43825 10.6883C8.38561 10.754 8.30571 10.7927 8.22032 10.7937L7.61446 10.8013L7.47795 10.2235C7.45883 10.1422 7.47795 10.0569 7.53058 9.99127L9.09883 8.02977Z" stroke="white" stroke-width="0.24949" stroke-linecap="round" stroke-linejoin="round"/>
<path d="M8.80273 8.396L9.71153 9.09391" stroke="#0D99FF" stroke-width="0.24949" stroke-linecap="round" stroke-linejoin="round"/>
</g>
</g>
<defs>
<filter id="filter0_di_100_13462" x="0.278867" y="0.915341" width="17.3778" height="17.3776" filterUnits="userSpaceOnUse" color-interpolation-filters="sRGB">
<feFlood flood-opacity="0" result="BackgroundImageFix"/>
<feColorMatrix in="SourceAlpha" type="matrix" values="0 0 0 0 0 0 0 0 0 0 0 0 0 0 0 0 0 0 127 0" result="hardAlpha"/>
<feMorphology radius="1.73191" operator="erode" in="SourceAlpha" result="effect1_dropShadow_100_13462"/>
<feOffset/>
<feGaussianBlur stdDeviation="3.46383"/>
<feComposite in2="hardAlpha" operator="out"/>
<feColorMatrix type="matrix" values="0 0 0 0 0 0 0 0 0 0 0 0 0 0 0 0 0 0 0.5 0"/>
<feBlend mode="normal" in2="BackgroundImageFix" result="effect1_dropShadow_100_13462"/>
<feBlend mode="normal" in="SourceGraphic" in2="effect1_dropShadow_100_13462" result="shape"/>
<feColorMatrix in="SourceAlpha" type="matrix" values="0 0 0 0 0 0 0 0 0 0 0 0 0 0 0 0 0 0 127 0" result="hardAlpha"/>
<feOffset dy="0.432979"/>
<feGaussianBlur stdDeviation="0.432979"/>
<feComposite in2="hardAlpha" operator="arithmetic" k2="-1" k3="1"/>
<feColorMatrix type="matrix" values="0 0 0 0 0.321569 0 0 0 0 0.317647 0 0 0 0 0.329412 0 0 0 1 0"/>
<feBlend mode="normal" in2="shape" result="effect2_innerShadow_100_13462"/>
</filter>
<linearGradient id="paint0_linear_100_13462" x1="5.47461" y1="9.60416" x2="12.4608" y2="9.60416" gradientUnits="userSpaceOnUse">
<stop stop-color="#ED1816"/>
<stop offset="0.633498" stop-color="#F84215"/>
<stop offset="1" stop-color="#FE5B14"/>
</linearGradient>
<clipPath id="clip0_100_13462">
<rect width="3.99266" height="3.99266" fill="white" transform="translate(6.9707 7.39795)"/>
</clipPath>
</defs>
</svg>
