<svg width="32" height="32" viewBox="0 0 32 32" fill="none" xmlns="http://www.w3.org/2000/svg">
<g clip-path="url(#clip0_100_13632)">
<path fill-rule="evenodd" clip-rule="evenodd" d="M4.33867 27.6857L7.70485 27.3253C8.60991 27.2284 9.47495 27.415 10.2095 27.777C11.9526 28.6361 13.9157 29.12 16 29.12C23.246 29.12 29.12 23.246 29.12 16C29.12 8.75402 23.246 2.88 16 2.88C8.75402 2.88 2.88 8.75402 2.88 16C2.88 18.231 3.43452 20.324 4.41087 22.1571C4.8895 23.0557 5.09486 24.1504 4.85745 25.2603L4.33867 27.6857ZM32 16C32 24.8366 24.8366 32 16 32C13.4645 32 11.0667 31.4102 8.93641 30.3604C8.64949 30.219 8.32954 30.1549 8.01148 30.1889L2.59186 30.7692C1.69985 30.8995 0.924448 29.5223 1.18527 28.6593L2.04116 24.6579C2.12454 24.2681 2.05636 23.8628 1.86896 23.511C0.676045 21.2714 0 18.7146 0 16C0 7.16344 7.16344 0 16 0C24.8366 0 32 7.16344 32 16Z" fill="white" fill-opacity="0.4"/>
<path d="M18.9957 9H14.4288C14.2124 9 14.0097 9.14912 13.9215 9.40609L11.6391 15.8882C11.5771 16.132 11.5771 16.2876 11.7195 16.5339C11.8453 16.722 12.0097 16.7803 12.1468 16.7803H14.0645L12.7299 22.5708C12.6947 22.7323 12.733 22.8614 12.859 22.9592C12.9826 23.0381 13.122 22.9981 13.2043 22.8782L19.8419 15.6125C20.0352 15.3539 20.0352 15.0816 19.9257 14.8352C19.8311 14.6226 19.6188 14.5111 19.4599 14.5111H17.6629L19.4111 10.053C19.5436 9.83638 19.5765 9.59001 19.445 9.30473C19.3245 9.0778 19.1319 9 18.9957 9Z" fill="#FE5B14"/>
</g>
<defs>
<clipPath id="clip0_100_13632">
<rect width="32" height="32" fill="white"/>
</clipPath>
</defs>
</svg>
