<svg width="64" height="27" viewBox="0 0 64 27" fill="none" xmlns="http://www.w3.org/2000/svg">
<g clip-path="url(#clip0_100_14835)">
<mask id="mask0_100_14835" style="mask-type:luminance" maskUnits="userSpaceOnUse" x="0" y="0" width="64" height="27">
<path d="M63.3918 0.655273H0.707031V26.0346H63.3918V0.655273Z" fill="white"/>
</mask>
<g mask="url(#mask0_100_14835)">
<path d="M54.457 15.2274L49.0898 6.34155H53.257L56.2112 12.3811L59.1347 6.34155H63.3325L57.9158 15.2274V20.1589C57.9149 20.453 57.7975 20.735 57.5892 20.943C57.3809 21.1511 57.0987 21.2683 56.8041 21.2692H54.457V15.2274Z" fill="white" fill-opacity="0.6"/>
<path d="M38.4911 6.34133H47.4519V8.23221C47.4519 8.52667 47.3348 8.80901 47.1264 9.01725C46.9178 9.22543 46.6351 9.34242 46.3403 9.34242H40.6797V12.3944H46.5541V14.1168C46.5533 14.4111 46.4359 14.693 46.2275 14.901C46.0192 15.109 45.737 15.2263 45.4424 15.2271H40.6797V18.2614H47.6954V20.1586C47.6958 20.3046 47.6674 20.4492 47.6117 20.584C47.5559 20.7189 47.474 20.8415 47.3708 20.9446C47.2674 21.0478 47.1447 21.1296 47.0097 21.1852C46.8746 21.2409 46.7299 21.2694 46.5838 21.2689H37.373V7.45154C37.373 7.30523 37.402 7.16037 37.4583 7.02523C37.5145 6.89012 37.5969 6.76745 37.7009 6.66427C37.8047 6.56109 37.9281 6.47945 38.0637 6.42402C38.1993 6.3686 38.3445 6.3405 38.4911 6.34133Z" fill="white" fill-opacity="0.6"/>
<path d="M27.0208 21.2694H24.832V7.45207C24.832 7.1576 24.9492 6.87519 25.1576 6.66698C25.3661 6.45877 25.6489 6.3418 25.9438 6.3418H35.0488V8.23267C35.048 8.52688 34.9305 8.80878 34.7222 9.01683C34.5139 9.22487 34.2317 9.34206 33.9371 9.34289H28.123V12.7114H33.879V14.4338C33.879 14.7283 33.7619 15.0107 33.5534 15.2189C33.345 15.4271 33.0621 15.5441 32.7673 15.5441H28.123V20.1623C28.123 20.4548 28.007 20.7355 27.8005 20.9429C27.594 21.1504 27.3136 21.2677 27.0208 21.2694Z" fill="white" fill-opacity="0.6"/>
<path d="M13.4869 21.2168C13.6956 21.4211 13.8615 21.665 13.9746 21.9341C14.0879 22.2031 14.1462 22.4921 14.1462 22.784C14.1462 23.0758 14.0879 23.3648 13.9746 23.6338C13.8615 23.9029 13.6956 24.1467 13.4869 24.351L11.9743 25.8585L10.4366 24.3197C9.59247 23.4749 9.09298 22.347 9.03498 21.1551C8.97698 19.9631 9.36465 18.7921 10.1227 17.8696L13.4869 21.2168Z" fill="white" fill-opacity="0.6"/>
<path d="M13.5272 10.0467C13.9297 10.4492 14.1558 10.9948 14.1558 11.5636C14.1558 12.1324 13.9297 12.678 13.5272 13.0805L9.76139 16.8415C9.22372 17.375 8.79755 18.0099 8.50772 18.7094C8.21789 19.4088 8.07011 20.1588 8.07297 20.9158C8.07386 21.3107 8.1149 21.7045 8.19533 22.0911L6.71096 20.5679C5.80796 19.6647 5.30078 18.4406 5.30078 17.1643C5.30078 15.888 5.80796 14.6637 6.71096 13.7606L11.9895 8.49219L13.5272 10.0467Z" fill="white" fill-opacity="0.6"/>
<path d="M13.5213 2.55928C13.9252 2.963 14.1519 3.51028 14.1519 4.08089C14.1519 4.65151 13.9252 5.19879 13.5213 5.60251L6.03034 13.093C5.35222 13.7694 4.85363 14.6038 4.57966 15.521C4.30568 16.4381 4.26497 17.409 4.46122 18.3458L2.94545 16.8289C2.49777 16.3827 2.14259 15.8526 1.90026 15.2691C1.65794 14.6856 1.5332 14.0601 1.5332 13.4285C1.5332 12.7966 1.65794 12.1712 1.90026 11.5877C2.14259 11.0042 2.49777 10.4741 2.94545 10.0279L11.971 1.01416L13.5213 2.55928Z" fill="white" fill-opacity="0.6"/>
</g>
</g>
<defs>
<clipPath id="clip0_100_14835">
<rect width="62.8966" height="25.3793" fill="white" transform="translate(0.707031 0.655273)"/>
</clipPath>
</defs>
</svg>
