<svg width="112" height="30" viewBox="0 0 112 30" fill="none" xmlns="http://www.w3.org/2000/svg">
<path d="M34.4326 23.6353H36.9221V16.9678H41.1769C44.2322 16.9678 46.4728 15.5423 46.4728 12.0935C46.4728 8.64479 44.2322 7.19629 41.1769 7.19629H34.4326V23.6353ZM36.9221 14.7835V9.3805H41.0638C42.9422 9.3805 43.8928 10.2312 43.8928 12.0935C43.8928 13.9329 42.9422 14.7835 41.0638 14.7835H36.9221ZM50.7877 23.9572C52.6662 23.9572 53.9789 23.1985 54.7257 21.98H54.771C54.9067 23.3135 55.4952 23.7503 56.6041 23.7503C56.9662 23.7503 57.351 23.7043 57.7358 23.6124V22.2328C57.5999 22.2559 57.5321 22.2559 57.4642 22.2559C57.0342 22.2559 56.921 21.819 56.921 20.9683V15.5882C56.921 12.5534 55.0199 11.5417 52.6436 11.5417C49.113 11.5417 47.6645 13.3121 47.5514 15.5653H49.8146C49.9278 14.0018 50.5388 13.3581 52.553 13.3581C54.2505 13.3581 54.7483 14.0708 54.7483 14.9215C54.7483 16.0711 53.6393 16.301 51.8288 16.6459C48.9546 17.1977 47.0082 17.9794 47.0082 20.6005C47.0082 22.6008 48.4793 23.9572 50.7877 23.9572ZM49.3167 20.4395C49.3167 19.221 50.1767 18.6461 52.2135 18.2323C53.3904 17.9794 54.3862 17.7265 54.7483 17.3816V19.06C54.7483 21.1062 53.2772 22.1409 51.2857 22.1409C49.9051 22.1409 49.3167 21.5431 49.3167 20.4395ZM60.7599 27.7509C62.5479 27.7509 63.6569 26.8082 64.7659 23.9113L69.3372 11.9096H67.0064L63.8379 20.8764H63.7927L60.4205 11.9096H57.9989L62.661 23.5204C62.2084 25.3597 61.1674 25.8196 60.2847 25.8196C59.9226 25.8196 59.7189 25.7966 59.3341 25.7506V27.59C59.9226 27.7049 60.2621 27.7509 60.7599 27.7509ZM70.6928 23.6353H72.9107V7.19629H70.6928V23.6353ZM80.5605 23.9802C84.1588 23.9802 86.3312 21.4281 86.3312 17.7495C86.3312 14.0938 84.1588 11.5417 80.5832 11.5417C76.9622 11.5417 74.789 14.1168 74.789 17.7725C74.789 21.4512 76.9622 23.9802 80.5605 23.9802ZM77.0979 17.7725C77.0979 15.3123 78.1841 13.4271 80.5832 13.4271C82.9368 13.4271 84.0231 15.3123 84.0231 17.7725C84.0231 20.2096 82.9368 22.1179 80.5832 22.1179C78.1841 22.1179 77.0979 20.2096 77.0979 17.7725ZM91.4104 23.9572C93.2888 23.9572 94.6017 23.1985 95.3483 21.98H95.3938C95.5295 23.3135 96.1177 23.7503 97.2267 23.7503C97.589 23.7503 97.9733 23.7043 98.3584 23.6124V22.2328C98.2227 22.2559 98.1545 22.2559 98.087 22.2559C97.6565 22.2559 97.5435 21.819 97.5435 20.9683V15.5882C97.5435 12.5534 95.6424 11.5417 93.2661 11.5417C89.7353 11.5417 88.2874 13.3121 88.1738 15.5653H90.4372C90.5501 14.0018 91.1611 13.3581 93.1758 13.3581C94.873 13.3581 95.371 14.0708 95.371 14.9215C95.371 16.0711 94.2621 16.301 92.4512 16.6459C89.5769 17.1977 87.631 17.9794 87.631 20.6005C87.631 22.6008 89.1016 23.9572 91.4104 23.9572ZM89.9392 20.4395C89.9392 19.221 90.7995 18.6461 92.8363 18.2323C94.0127 17.9794 95.0087 17.7265 95.371 17.3816V19.06C95.371 21.1062 93.8998 22.1409 91.9084 22.1409C90.5274 22.1409 89.9392 21.5431 89.9392 20.4395ZM104.726 23.9572C106.537 23.9572 107.646 23.0836 108.28 22.2559H108.325V23.6353H110.543V7.19629H108.325V13.3351H108.28C107.646 12.4154 106.537 11.5647 104.726 11.5647C101.784 11.5647 99.5438 13.9099 99.5438 17.7725C99.5438 21.6351 101.784 23.9572 104.726 23.9572ZM101.852 17.7725C101.852 15.4733 102.916 13.45 105.089 13.45C107.08 13.45 108.303 15.1054 108.303 17.7725C108.303 20.4165 107.08 22.0949 105.089 22.0949C102.916 22.0949 101.852 20.0717 101.852 17.7725Z" fill="white" fill-opacity="0.6"/>
<mask id="mask0_100_14865" style="mask-type:luminance" maskUnits="userSpaceOnUse" x="0" y="1" width="26" height="29">
<path d="M25.8291 1.3291H0.245117V29.319H25.8291V1.3291Z" fill="white"/>
</mask>
<g mask="url(#mask0_100_14865)">
<mask id="mask1_100_14865" style="mask-type:luminance" maskUnits="userSpaceOnUse" x="4" y="1" width="18" height="26">
<path d="M21.9918 1.3291H4.08301V26.52H21.9918V1.3291Z" fill="white"/>
</mask>
<g mask="url(#mask1_100_14865)">
<path d="M12.2962 2.98145L22.1762 9.47886V21.8114L14.7366 26.52V14.1875L4.84473 7.69863L12.2962 2.98145Z" fill="white" fill-opacity="0.6"/>
<path d="M11.5384 25.8365V16.2129L4.08301 20.9301L11.5384 25.8365Z" fill="white" fill-opacity="0.6"/>
</g>
</g>
</svg>
