<svg width="101" height="27" viewBox="0 0 101 27" fill="none" xmlns="http://www.w3.org/2000/svg">
<g clip-path="url(#clip0_100_14846)">
<mask id="mask0_100_14846" style="mask-type:luminance" maskUnits="userSpaceOnUse" x="0" y="0" width="101" height="27">
<path d="M100.608 0.655273H0.0341797V26.0346H100.608V0.655273Z" fill="white"/>
</mask>
<g mask="url(#mask0_100_14846)">
<path d="M55.5397 19.9335C56.1001 19.9315 56.6368 19.7089 57.0321 19.3145C57.4273 18.9202 57.6489 18.3862 57.6483 17.8298C56.6631 18.2909 55.5538 18.422 54.4871 18.2033C53.4204 17.9846 52.4541 17.428 51.7334 16.6172C51.0127 15.8064 50.5766 14.7852 50.4907 13.7072C50.4047 12.6291 50.6736 11.5525 51.2569 10.6392C51.8401 9.72593 52.7063 9.02533 53.725 8.64281C54.7438 8.26028 55.86 8.21643 56.906 8.51794C57.952 8.81944 58.8711 9.44999 59.5252 10.3147C60.1792 11.1795 60.5328 12.2316 60.5329 13.313V17.8373C60.5342 19.1568 60.0086 20.4229 59.0711 21.358C58.1336 22.2931 56.8609 22.8208 55.532 22.8255L55.5397 19.9335ZM53.4285 13.3054C53.4311 13.7189 53.5568 14.1223 53.7899 14.4649C54.023 14.8074 54.353 15.0738 54.7384 15.2304C55.1238 15.387 55.5472 15.4268 55.9553 15.3448C56.3634 15.2628 56.7379 15.0626 57.0317 14.7696C57.3254 14.4766 57.5251 14.1037 57.6058 13.6981C57.6864 13.2925 57.6443 12.8723 57.4847 12.4904C57.3251 12.1086 57.0553 11.7822 56.7091 11.5524C56.363 11.3225 55.9561 11.1996 55.5397 11.1991C54.9786 11.2012 54.4413 11.4241 54.0455 11.8189C53.6497 12.2138 53.4279 12.7484 53.4285 13.3054ZM71.0276 13.3054C71.0276 12.6534 71.1567 12.0077 71.4078 11.4053C71.6596 10.8028 72.0277 10.2555 72.4923 9.79439C72.9562 9.33331 73.5077 8.9676 74.1147 8.71805C74.7212 8.46851 75.3717 8.34009 76.028 8.34009C76.6849 8.34009 77.3354 8.46851 77.9418 8.71805C78.5489 8.9676 79.0998 9.33331 79.5643 9.79439C80.0289 10.2555 80.397 10.8028 80.6487 11.4053C80.8999 12.0077 81.029 12.6534 81.029 13.3054V18.1922H78.147V13.313C78.1451 12.8995 78.0198 12.4958 77.7872 12.153C77.554 11.81 77.2242 11.5433 76.8389 11.3863C76.4536 11.2293 76.0299 11.1892 75.6216 11.2708C75.2132 11.3526 74.8388 11.5525 74.5448 11.8455C74.2508 12.1384 74.0508 12.5112 73.9697 12.9169C73.8892 13.3226 73.9313 13.7429 74.0905 14.1249C74.2502 14.5069 74.5199 14.8335 74.8662 15.0635C75.2126 15.2933 75.6196 15.4163 76.0356 15.4168C76.4983 15.4165 76.9475 15.2631 77.3124 14.9808V18.1339C76.8964 18.2454 76.467 18.3017 76.0356 18.3012C74.7077 18.2958 73.4355 17.7678 72.4986 16.8328C71.5618 15.8977 71.0359 14.632 71.0378 13.313L71.0276 13.3054ZM29.9966 13.3054C29.9966 11.9886 30.5235 10.7256 31.4614 9.79439C32.3992 8.86322 33.6712 8.34009 34.9975 8.34009C36.3239 8.34009 37.5958 8.86322 38.5337 9.79439C39.4715 10.7256 39.9984 11.9886 39.9984 13.3054V18.1922H37.1087V13.313C37.1067 12.8994 36.9813 12.4956 36.7484 12.1527C36.5154 11.8097 36.1854 11.543 35.8 11.3861C35.4145 11.2291 34.9909 11.1891 34.5825 11.271C34.1741 11.353 33.7994 11.5532 33.5055 11.8464C33.2116 12.1396 33.0118 12.5126 32.9313 12.9185C32.8508 13.3243 32.8931 13.7447 33.053 14.1267C33.2129 14.5087 33.4831 14.835 33.8297 15.0647C34.1762 15.2943 34.5835 15.4168 35.0001 15.4168C35.4625 15.4162 35.9116 15.2628 36.2765 14.9808V18.1339C35.8602 18.2452 35.4311 18.3015 35.0001 18.3012C33.6715 18.2958 32.3991 17.7679 31.4618 16.8329C30.5245 15.8979 29.9986 14.6323 29.9992 13.313L29.9966 13.3054ZM93.3896 18.1973V12.5501C93.3896 12.3744 93.3551 12.2003 93.2873 12.038C93.2196 11.8756 93.1199 11.7281 92.9947 11.6038C92.8694 11.4795 92.7211 11.381 92.5576 11.3137C92.394 11.2465 92.2189 11.2118 92.0419 11.2118C91.8649 11.2118 91.6898 11.2465 91.5262 11.3137C91.3626 11.381 91.2137 11.4795 91.0884 11.6038C90.9632 11.7281 90.8642 11.8756 90.7964 12.038C90.7287 12.2003 90.6942 12.3744 90.6942 12.5501V18.2049H87.8039V12.5501C87.8039 12.3744 87.7694 12.2003 87.7016 12.038C87.6339 11.8756 87.5348 11.7281 87.4096 11.6038C87.2843 11.4795 87.1355 11.381 86.9719 11.3137C86.8083 11.2465 86.6332 11.2118 86.4562 11.2118C86.2792 11.2118 86.1041 11.2465 85.9405 11.3137C85.7769 11.381 85.6286 11.4795 85.5034 11.6038C85.3781 11.7281 85.2785 11.8756 85.2107 12.038C85.143 12.2003 85.1085 12.3744 85.1085 12.5501V18.2049H82.2188V12.5501C82.2182 11.4317 82.6642 10.3586 83.4585 9.56617C84.2535 8.77363 85.3321 8.32639 86.4587 8.32233C87.4882 8.32201 88.4819 8.69623 89.2513 9.37424C89.8641 8.84165 90.6188 8.49592 91.4246 8.37854C92.2304 8.2611 93.0528 8.37696 93.7941 8.71222C94.5353 9.04748 95.1628 9.58793 95.6025 10.2687C96.0421 10.9494 96.2741 11.7416 96.2716 12.5501V18.2049L93.3896 18.1973ZM67.1443 18.1973V12.5501C67.1443 12.3744 67.1098 12.2003 67.042 12.038C66.9743 11.8756 66.8753 11.7281 66.75 11.6038C66.6248 11.4795 66.4759 11.381 66.3123 11.3137C66.1487 11.2465 65.9736 11.2118 65.7966 11.2118C65.6196 11.2118 65.4445 11.2465 65.2809 11.3137C65.1173 11.381 64.969 11.4795 64.8438 11.6038C64.7186 11.7281 64.6195 11.8756 64.5518 12.038C64.484 12.2003 64.4489 12.3744 64.4489 12.5501V18.2049H61.554V5.59508H64.4463V8.54287C64.8802 8.39656 65.3358 8.32207 65.794 8.32233C66.92 8.32702 67.998 8.77465 68.7923 9.56706C69.5866 10.3595 70.0327 11.4321 70.032 12.5501V18.2049L67.1443 18.1973ZM46.7581 18.1973V12.5501C46.7661 12.3696 46.7371 12.1894 46.673 12.0203C46.6089 11.8513 46.511 11.6969 46.3851 11.5664C46.2593 11.4359 46.1082 11.3321 45.9409 11.2611C45.7736 11.1902 45.5935 11.1536 45.4116 11.1536C45.2296 11.1536 45.0496 11.1902 44.8822 11.2611C44.7149 11.3321 44.5638 11.4359 44.438 11.5664C44.3121 11.6969 44.2142 11.8513 44.1502 12.0203C44.086 12.1894 44.057 12.3696 44.065 12.5501V18.2049H41.1778V12.5501C41.1639 11.9887 41.2633 11.4303 41.4701 10.9076C41.6769 10.3849 41.9869 9.90853 42.3819 9.50665C42.7768 9.10471 43.2488 8.78531 43.7701 8.56724C44.2912 8.34917 44.8511 8.2368 45.4167 8.2368C45.9822 8.2368 46.5421 8.34917 47.0633 8.56724C47.5845 8.78531 48.0565 9.10471 48.4515 9.50665C48.8465 9.90853 49.1564 10.3849 49.3632 10.9076C49.57 11.4303 49.6695 11.9887 49.6555 12.5501V18.2049L46.7581 18.1973ZM97.418 18.1973V8.79889H100.31V18.2049L97.418 18.1973ZM97.124 6.35801C97.1234 5.89864 97.3068 5.45778 97.6333 5.13225C97.9592 4.80672 98.4027 4.62312 98.8653 4.62178C99.2117 4.62027 99.5504 4.72083 99.8386 4.91069C100.127 5.10055 100.353 5.37118 100.487 5.6883C100.62 6.00541 100.655 6.35475 100.589 6.69204C100.522 7.02931 100.356 7.33939 100.112 7.58296C99.868 7.82654 99.5561 7.99271 99.2168 8.06029C98.8775 8.12792 98.5254 8.09398 98.2059 7.96277C97.8857 7.83162 97.6122 7.60904 97.4192 7.3234C97.2269 7.03769 97.124 6.70173 97.124 6.35801ZM0.0322317 13.3434C0.0322317 9.97795 1.37874 6.7503 3.77553 4.37052C6.17234 1.99075 9.42313 0.653809 12.8127 0.653809C16.2023 0.653809 19.453 1.99075 21.8498 4.37052C24.2466 6.7503 25.5931 9.97795 25.5931 13.3434V24.8862L24.0615 24.6049V13.3434C24.0572 10.9866 23.3021 8.69147 21.9042 6.78662C20.5063 4.88179 18.5372 3.46494 16.2789 2.73887C14.0206 2.01281 11.5888 2.01477 9.33168 2.74448C7.07459 3.47418 5.10784 4.89421 3.71303 6.80129C2.31821 8.70835 1.56684 11.0047 1.56647 13.3616C1.56609 15.7185 2.31674 18.0151 3.71095 19.9226C5.10515 21.8301 7.07146 23.2508 9.32829 23.9812C11.5852 24.7116 14.017 24.7143 16.2755 23.9889L18.9508 24.4959C17.0026 25.5529 14.8108 26.0882 12.5911 26.0488C10.3714 26.0096 8.20016 25.3971 6.29119 24.2718C4.38221 23.1464 2.8012 21.547 1.70375 19.6308C0.60631 17.7146 0.0302396 15.5478 0.0322317 13.3434ZM21.7308 24.174V13.3434C21.7311 11.4374 21.1133 9.58197 19.9686 8.05185C18.8238 6.52174 17.2133 5.39838 15.3754 4.84815C13.5374 4.29792 11.5699 4.35007 9.76404 4.9969C7.95829 5.64371 6.41038 6.8508 5.34955 8.43939C4.28871 10.0279 3.7714 11.9135 3.87421 13.8168C3.97703 15.7201 4.6945 17.5399 5.92038 19.0067C7.14622 20.4735 8.81535 21.5093 10.6804 21.9606C12.5455 22.412 14.5074 22.2549 16.2755 21.5126V23.1322C14.1832 23.8621 11.9113 23.9122 9.78839 23.2752C7.66556 22.6384 5.80173 21.3474 4.46659 19.5893C3.13146 17.8311 2.39422 15.6969 2.36149 13.4951C2.32877 11.2935 3.00227 9.13853 4.28457 7.34199C5.56687 5.54548 7.39148 4.20054 9.4945 3.50171C11.5975 2.80287 13.87 2.78639 15.9831 3.45463C18.0961 4.12286 19.9403 5.44117 21.249 7.2189C22.5576 8.99659 23.2628 11.1415 23.2624 13.3434V24.4553L21.7308 24.174ZM19.4333 23.7355V13.3434C19.4321 11.895 18.9469 10.4878 18.0538 9.34239C17.1607 8.19708 15.9102 7.37828 14.498 7.01434C13.086 6.65039 11.5922 6.76188 10.2508 7.33133C8.90941 7.90078 7.79617 8.89603 7.08558 10.1611C6.37496 11.4262 6.10713 12.8895 6.32405 14.3219C6.54101 15.7543 7.23038 17.0748 8.28426 18.0764C9.33813 19.0781 10.697 19.7043 12.1477 19.8568C13.5984 20.0094 15.0592 19.6798 16.3011 18.9196V20.6356C14.7094 21.3859 12.9154 21.6026 11.1891 21.2529C9.46268 20.9033 7.89746 20.0064 6.72888 18.6971C5.56037 17.3879 4.85178 15.7371 4.70981 13.9935C4.56785 12.2498 5.00019 10.5075 5.94174 9.02882C6.88333 7.55023 8.28311 6.41528 9.93051 5.79487C11.5778 5.17447 13.3837 5.10216 15.076 5.58886C16.7683 6.07555 18.2556 7.09492 19.314 8.49345C20.3725 9.89204 20.9446 11.5941 20.9445 13.3434V24.027L19.4333 23.7355ZM17.1078 23.3071V13.3434C17.1072 12.3319 16.743 11.3539 16.0807 10.5853C15.4183 9.81679 14.5014 9.30831 13.4949 9.15147C12.4885 8.99456 11.4587 9.19963 10.5911 9.72974C9.72347 10.2598 9.07492 11.08 8.76225 12.0427C8.44964 13.0054 8.49341 14.0473 8.88577 14.9808C9.27819 15.9142 9.99332 16.678 10.9025 17.1343C11.8116 17.5908 12.8549 17.7099 13.8447 17.4703C14.8344 17.2307 15.7055 16.6481 16.3011 15.8274V17.959C15.2561 18.7395 13.9763 19.1469 12.669 19.115C11.3618 19.0832 10.1037 18.614 9.0985 17.7836C8.09332 16.9531 7.39998 15.81 7.13076 14.5396C6.86154 13.269 7.03229 11.9454 7.61527 10.7833C8.19825 9.62111 9.1594 8.68842 10.3429 8.1363C11.5264 7.58417 12.863 7.44503 14.1361 7.74127C15.4092 8.03757 16.5443 8.752 17.3575 9.76876C18.1706 10.7855 18.6142 12.0451 18.6164 13.3434V23.596L17.1078 23.3071Z" fill="white" fill-opacity="0.6"/>
</g>
</g>
<defs>
<clipPath id="clip0_100_14846">
<rect width="100.966" height="25.3793" fill="white" transform="translate(0.0341797 0.655273)"/>
</clipPath>
</defs>
</svg>
