<svg width="343" height="81" viewBox="0 0 343 81" fill="none" xmlns="http://www.w3.org/2000/svg">
<path d="M16.5861 27.3861C16.5861 30.7333 21.5108 31.1872 27.8854 31.7545C39.2147 32.8331 55.1363 34.3081 55.1063 53.4282C55.1063 75.2154 41.8131 80.3787 27.553 80.3787C13.3233 80.322 1.51059 77.0883 4.32984e-05 53.4282H16.5861C18.399 59.3291 22.5983 60.8608 27.553 60.8608C32.4777 60.8608 38.5199 59.3291 38.5199 53.4282C38.5199 50.081 33.5956 49.5705 27.2206 49.0031C15.8913 47.9252 -0.0302973 46.4495 4.32984e-05 27.3861C4.32984e-05 5.59895 13.2933 0.378906 27.553 0.378906C41.7827 0.549103 53.5955 3.55659 55.1063 27.3861H38.5199C36.7073 21.3718 32.5077 19.9535 27.553 19.9535C22.6286 19.9535 16.5861 21.3151 16.5861 27.3861Z" fill="url(#paint0_linear_100_18601)"/>
<path d="M84.715 24.4356L79.1258 46.9609H90.2738L84.715 24.4356ZM53.5061 78.6202L75.2889 2.36472H94.1107L115.893 78.6202H98.0686L94.8661 65.5705H74.5335L71.331 78.6202H53.5061Z" fill="url(#paint1_linear_100_18601)"/>
<path d="M131.726 60.4625H153.025C154.385 60.4625 155.502 57.9096 155.502 55.3567C155.502 52.803 154.385 50.2501 153.025 50.2501H131.726V60.4625ZM150.064 20.463H131.726V30.7322H150.064C151.424 30.7322 152.542 28.1225 152.542 25.5696C152.542 23.0159 151.424 20.463 150.064 20.463ZM162.693 39.186C167.284 41.9665 170.365 48.5481 170.365 58.1365C170.458 71.4699 164.475 78.6189 157.496 78.6189H115.894L115.895 2.36338H154.505C161.545 2.30665 167.495 9.51231 167.406 22.789C167.406 30.1081 165.593 35.7253 162.693 39.186Z" fill="url(#paint2_linear_100_18601)"/>
<path d="M188.706 27.3861C188.706 30.7333 193.632 31.1872 200.004 31.7545C211.336 32.8331 227.256 34.3081 227.225 53.4282C227.225 75.2154 213.933 80.3787 199.673 80.3787C185.444 80.322 173.632 77.0883 172.121 53.4282H188.706C190.52 59.3291 194.72 60.8608 199.673 60.8608C204.599 60.8608 210.64 59.3291 210.64 53.4282C210.64 50.081 205.714 49.5705 199.339 49.0031C188.011 47.9252 172.091 46.4495 172.121 27.3861C172.121 5.59895 185.413 0.378906 199.673 0.378906C213.903 0.549103 225.715 3.55659 227.225 27.3861H210.64C208.827 21.3718 204.627 19.9535 199.673 19.9535C194.747 19.9535 188.706 21.3151 188.706 27.3861Z" fill="url(#paint3_linear_100_18601)"/>
<path d="M268.737 41.3438V2.25124H284.599V43.2159C284.661 72.0386 272.092 80.3222 256.863 80.3789C241.639 80.3222 229.069 72.0386 229.131 43.2159V2.25124H244.962V41.3438C244.901 53.8823 250.369 56.0388 256.863 56.209C263.33 56.0388 268.829 53.8823 268.737 41.3438Z" fill="url(#paint4_linear_100_18601)"/>
<path d="M304.481 27.3861C304.481 30.7333 309.404 31.1872 315.779 31.7545C327.107 32.8331 343.031 34.3081 343 53.4282C343 75.2154 329.708 80.3787 315.448 80.3787C301.219 80.322 289.403 77.0883 287.893 53.4282H304.481C306.291 59.3291 310.491 60.8608 315.448 60.8608C320.371 60.8608 326.415 59.3291 326.415 53.4282C326.415 50.081 321.489 49.5705 315.114 49.0031C303.786 47.9252 287.862 46.4495 287.893 27.3861C287.893 5.59895 301.188 0.378906 315.448 0.378906C329.677 0.549103 341.49 3.55659 343 27.3861H326.415C324.601 21.3718 320.401 19.9535 315.448 19.9535C310.522 19.9535 304.481 21.3151 304.481 27.3861Z" fill="url(#paint5_linear_100_18601)"/>
<defs>
<linearGradient id="paint0_linear_100_18601" x1="0" y1="0.378906" x2="29.9128" y2="130.759" gradientUnits="userSpaceOnUse">
<stop stop-color="white" stop-opacity="0.12"/>
<stop offset="0.3" stop-color="white" stop-opacity="0.09"/>
<stop offset="1" stop-color="white" stop-opacity="0.07"/>
</linearGradient>
<linearGradient id="paint1_linear_100_18601" x1="0" y1="0.378906" x2="29.9128" y2="130.759" gradientUnits="userSpaceOnUse">
<stop stop-color="white" stop-opacity="0.12"/>
<stop offset="0.3" stop-color="white" stop-opacity="0.09"/>
<stop offset="1" stop-color="white" stop-opacity="0.07"/>
</linearGradient>
<linearGradient id="paint2_linear_100_18601" x1="0" y1="0.378906" x2="29.9128" y2="130.759" gradientUnits="userSpaceOnUse">
<stop stop-color="white" stop-opacity="0.12"/>
<stop offset="0.3" stop-color="white" stop-opacity="0.09"/>
<stop offset="1" stop-color="white" stop-opacity="0.07"/>
</linearGradient>
<linearGradient id="paint3_linear_100_18601" x1="0" y1="0.378906" x2="29.9128" y2="130.759" gradientUnits="userSpaceOnUse">
<stop stop-color="white" stop-opacity="0.12"/>
<stop offset="0.3" stop-color="white" stop-opacity="0.09"/>
<stop offset="1" stop-color="white" stop-opacity="0.07"/>
</linearGradient>
<linearGradient id="paint4_linear_100_18601" x1="0" y1="0.378906" x2="29.9128" y2="130.759" gradientUnits="userSpaceOnUse">
<stop stop-color="white" stop-opacity="0.12"/>
<stop offset="0.3" stop-color="white" stop-opacity="0.09"/>
<stop offset="1" stop-color="white" stop-opacity="0.07"/>
</linearGradient>
<linearGradient id="paint5_linear_100_18601" x1="0" y1="0.378906" x2="29.9128" y2="130.759" gradientUnits="userSpaceOnUse">
<stop stop-color="white" stop-opacity="0.12"/>
<stop offset="0.3" stop-color="white" stop-opacity="0.09"/>
<stop offset="1" stop-color="white" stop-opacity="0.07"/>
</linearGradient>
</defs>
</svg>
