<svg width="16" height="16" viewBox="0 0 16 16" fill="none" xmlns="http://www.w3.org/2000/svg">
<path d="M3.00065 14.6667V11.3334M3.00065 4.66671V1.33337M1.33398 3.00004H4.66732M1.33398 13H4.66732M8.66732 2.00004L7.5112 5.00595C7.32319 5.49477 7.22919 5.73918 7.083 5.94476C6.95344 6.12697 6.79425 6.28617 6.61204 6.41573C6.40646 6.56191 6.16205 6.65591 5.67322 6.84392L2.66732 8.00004L5.67323 9.15616C6.16205 9.34417 6.40646 9.43817 6.61204 9.58435C6.79425 9.71391 6.95344 9.87311 7.083 10.0553C7.22919 10.2609 7.32319 10.5053 7.5112 10.9941L8.66732 14L9.82344 10.9941C10.0114 10.5053 10.1054 10.2609 10.2516 10.0553C10.3812 9.87311 10.5404 9.71391 10.7226 9.58435C10.9282 9.43817 11.1726 9.34417 11.6614 9.15616L14.6673 8.00004L11.6614 6.84392C11.1726 6.65591 10.9282 6.56191 10.7226 6.41573C10.5404 6.28617 10.3812 6.12697 10.2516 5.94476C10.1054 5.73918 10.0114 5.49477 9.82344 5.00595L8.66732 2.00004Z" stroke="white" stroke-linecap="round" stroke-linejoin="round"/>
</svg>
