<svg width="152" height="34" viewBox="0 0 152 34" fill="none" xmlns="http://www.w3.org/2000/svg">
<g clip-path="url(#clip0_2004_16803)">
<path d="M56.2511 14.977C56.2511 15.4667 57.6957 15.5331 59.5656 15.6161C62.8889 15.7739 67.5593 15.9897 67.5505 18.787C67.5505 21.9745 63.6511 22.7299 59.4681 22.7299C55.294 22.7216 51.8289 22.2485 51.3858 18.787H56.2511C56.7829 19.6503 58.0147 19.8744 59.4681 19.8744C60.9127 19.8744 62.6851 19.6503 62.6851 18.787C62.6851 18.2973 61.2406 18.2226 59.3706 18.1396C56.0473 17.9819 51.3769 17.766 51.3858 14.977C51.3858 11.7895 55.2852 11.0258 59.4681 11.0258C63.6422 11.0507 67.1073 11.4907 67.5505 14.977H62.6851C62.1534 14.0971 60.9215 13.8896 59.4681 13.8896C58.0236 13.8896 56.2511 14.0888 56.2511 14.977Z" fill="white"/>
<path d="M76.2358 14.5453L74.5963 17.8408H77.8664L76.2358 14.5453ZM67.0811 22.4726L73.4707 11.3163H78.9919L85.3816 22.4726H80.1529L79.2135 20.5634H73.2492L72.3098 22.4726H67.0811Z" fill="white"/>
<path d="M90.0259 19.8163H96.2738C96.6726 19.8163 97.0005 19.4428 97.0005 19.0693C97.0005 18.6957 96.6726 18.3222 96.2738 18.3222H90.0259V19.8163ZM95.4053 13.9643H90.0259V15.4667H95.4053C95.8041 15.4667 96.132 15.0849 96.132 14.7114C96.132 14.3378 95.8041 13.9643 95.4053 13.9643ZM99.1097 16.7035C100.456 17.1103 101.36 18.0732 101.36 19.476C101.387 21.4267 99.6325 22.4726 97.5854 22.4726H85.3818L85.3821 11.3163H96.708C98.7729 11.308 100.518 12.3622 100.492 14.3046C100.492 15.3754 99.9605 16.1972 99.1097 16.7035Z" fill="white"/>
<path d="M106.74 14.977C106.74 15.4667 108.185 15.5331 110.054 15.6161C113.378 15.7739 118.048 15.9897 118.039 18.787C118.039 21.9745 114.14 22.7299 109.957 22.7299C105.783 22.7216 102.318 22.2485 101.875 18.787H106.74C107.272 19.6503 108.504 19.8744 109.957 19.8744C111.402 19.8744 113.174 19.6503 113.174 18.787C113.174 18.2973 111.729 18.2226 109.859 18.1396C106.536 17.9819 101.866 17.766 101.875 14.977C101.875 11.7895 105.774 11.0258 109.957 11.0258C114.131 11.0507 117.596 11.4907 118.039 14.977H113.174C112.642 14.0971 111.41 13.8896 109.957 13.8896C108.512 13.8896 106.74 14.0888 106.74 14.977Z" fill="white"/>
<path d="M130.216 17.019V11.2997H134.869V17.2929C134.887 21.5097 131.2 22.7216 126.733 22.7299C122.267 22.7216 118.58 21.5097 118.598 17.2929V11.2997H123.242V17.019C123.224 18.8534 124.828 19.1689 126.733 19.1938C128.63 19.1689 130.243 18.8534 130.216 17.019Z" fill="white"/>
<path d="M140.701 14.977C140.701 15.4667 142.145 15.5331 144.015 15.6161C147.338 15.7739 152.009 15.9897 152 18.787C152 21.9745 148.101 22.7299 143.918 22.7299C139.744 22.7216 136.278 22.2485 135.835 18.787H140.701C141.232 19.6503 142.464 19.8744 143.918 19.8744C145.362 19.8744 147.135 19.6503 147.135 18.787C147.135 18.2973 145.69 18.2226 143.82 18.1396C140.497 17.9819 135.826 17.766 135.835 14.977C135.835 11.7895 139.735 11.0258 143.918 11.0258C148.092 11.0507 151.557 11.4907 152 14.977H147.135C146.603 14.0971 145.371 13.8896 143.918 13.8896C142.473 13.8896 140.701 14.0888 140.701 14.977Z" fill="white"/>
<path d="M19.4861 1.48e-06L31.4587 0L41.4857 16.3392H37.4608L29.4462 3.15646H25.9813L33.4356 16.3392H21.4402L11.4219 1.48e-06L15.4469 9.83036e-07L23.4527 13.0564H27.1438L19.4861 1.48e-06Z" fill="white"/>
<path d="M15.447 27.4343L21.4403 17.6523H41.4856L39.4731 20.9352H23.4528L21.3717 24.2652L37.4605 24.218L31.4584 33.9999H11.4219L13.4344 30.7088H29.4459L31.4655 27.4231L15.447 27.4343Z" fill="white"/>
<path d="M6.00212 26.7776L0 16.9957L10.0271 0.656494L12.0396 3.93098L4.03378 16.9957L6.0844 20.3393L14.0521 7.22227L20.0454 16.9959L10.0271 33.3434L8.01465 30.0523L16.0204 16.9959L14.038 13.6122L6.00212 26.7776Z" fill="white"/>
</g>
<defs>
<clipPath id="clip0_2004_16803">
<rect width="152" height="34" fill="white"/>
</clipPath>
</defs>
</svg>
