<svg width="43" height="34" viewBox="0 0 43 34" fill="none" xmlns="http://www.w3.org/2000/svg">
<path d="M16.0251 27.5782L22.0184 18H42.0637L40.0512 21.2145H24.0309L21.9498 24.4751L38.0386 24.4289L32.0365 34.007H12L14.0125 30.7845H30.024L32.0436 27.5672L16.0251 27.5782Z" fill="white"/>
<path d="M20.0642 1L32.0368 1L42.0638 16.9988H38.0389L30.0243 4.0907H26.5594L34.0137 16.9988H22.0183L12 1L16.025 1L24.0308 13.7844H27.7219L20.0642 1Z" fill="white"/>
<path d="M6.28795 26.5722L0 16.9958L10.5046 0.5L12.6129 4.20568L4.22588 16.9958L6.37415 20.2692L14.7213 7.4278L21 16.996L10.5046 33.5L8.39632 29.7781L16.7833 16.996L14.7065 13.6834L6.28795 26.5722Z" fill="white"/>
</svg>
