<svg width="20" height="20" viewBox="0 0 20 20" fill="none" xmlns="http://www.w3.org/2000/svg">
<path d="M6.66667 4.16663V4.99996M10 4.16663V6.66663M13.3333 4.16663V4.99996M2.5 4.26079C2.5 3.79996 2.5 3.56913 2.53583 3.37746C2.61221 2.96326 2.81185 2.58176 3.10863 2.28289C3.40541 1.98403 3.78551 1.78173 4.19917 1.70246C4.38917 1.66663 4.61833 1.66663 5.075 1.66663H14.925C15.3817 1.66663 15.6108 1.66663 15.8008 1.70246C16.2145 1.78173 16.5946 1.98403 16.8914 2.28289C17.1881 2.58176 17.3878 2.96326 17.4642 3.37746C17.5 3.56913 17.5 3.79996 17.5 4.26079C17.5 4.71246 17.5 4.93829 17.4733 5.14829C17.4168 5.59995 17.2693 6.03546 17.0397 6.42849C16.8101 6.82152 16.5032 7.16391 16.1375 7.43496C15.9692 7.55996 15.7725 7.66996 15.3808 7.88913L13.2375 9.08829C11.655 9.97413 10.8642 10.4166 10 10.4166C9.13583 10.4166 8.345 9.97413 6.7625 9.08829L4.61917 7.88829C4.2275 7.66996 4.03167 7.55996 3.8625 7.43496C3.49682 7.16391 3.1899 6.82152 2.9603 6.42849C2.7307 6.03546 2.58318 5.59995 2.52667 5.14829C2.5 4.93829 2.5 4.71246 2.5 4.26079ZM10.6475 11.375L11.3075 12.7058C11.3636 12.8056 11.4401 12.8925 11.532 12.9608C11.6239 13.0292 11.7291 13.0774 11.8408 13.1025L13.0367 13.3025C13.8008 13.4316 13.9808 13.9908 13.43 14.5433L12.5 15.4808C12.4186 15.573 12.3589 15.6822 12.3252 15.8004C12.2914 15.9186 12.2845 16.0429 12.305 16.1641L12.5717 17.3258C12.7817 18.2441 12.2975 18.6 11.4917 18.1191L10.3708 17.45C10.1675 17.3291 9.83417 17.3291 9.62833 17.45L8.50667 18.1191C7.70417 18.6 7.21667 18.2408 7.42667 17.3258L7.69333 16.165C7.71393 16.0436 7.70711 15.9192 7.67337 15.8008C7.63963 15.6824 7.57982 15.5731 7.49833 15.4808L6.56833 14.5433C6.02083 13.9908 6.1975 13.4316 6.96167 13.3033L8.15833 13.1033C8.26924 13.0775 8.37354 13.0289 8.46453 12.9604C8.55551 12.8919 8.63118 12.8052 8.68667 12.7058L9.34667 11.375C9.70667 10.6525 10.2917 10.6525 10.6475 11.375Z" stroke="#FE5B14" stroke-width="1.5" stroke-linecap="round" stroke-linejoin="round"/>
</svg>
