<svg width="20" height="20" viewBox="0 0 20 20" fill="none" xmlns="http://www.w3.org/2000/svg">
<path d="M13.9992 2.75C13.9992 2.55109 14.0782 2.36032 14.2188 2.21967C14.3595 2.07902 14.5503 2 14.7492 2H17.2492C17.4481 2 17.6389 2.07902 17.7795 2.21967C17.9202 2.36032 17.9992 2.55109 17.9992 2.75V5.25C17.9992 5.44891 17.9202 5.63968 17.7795 5.78033C17.6389 5.92098 17.4481 6 17.2492 6C17.0503 6 16.8595 5.92098 16.7188 5.78033C16.5782 5.63968 16.4992 5.44891 16.4992 5.25V4.56L12.0292 9.03C11.8886 9.17045 11.6979 9.24934 11.4992 9.24934C11.3004 9.24934 11.1098 9.17045 10.9692 9.03L8.49918 6.56L4.27918 10.78C4.21052 10.8537 4.12771 10.9128 4.03572 10.9538C3.94372 10.9948 3.8444 11.0168 3.7437 11.0186C3.643 11.0204 3.54297 11.0018 3.44958 10.9641C3.35619 10.9264 3.27136 10.8703 3.20014 10.799C3.12892 10.7278 3.07278 10.643 3.03505 10.5496C2.99733 10.4562 2.97881 10.3562 2.98059 10.2555C2.98236 10.1548 3.0044 10.0555 3.0454 9.96346C3.08639 9.87146 3.14549 9.78866 3.21918 9.72L7.96918 4.97C8.1098 4.82955 8.30043 4.75066 8.49918 4.75066C8.69793 4.75066 8.88855 4.82955 9.02918 4.97L11.4992 7.44L15.4392 3.5H14.7492C14.5503 3.5 14.3595 3.42098 14.2188 3.28033C14.0782 3.13968 13.9992 2.94891 13.9992 2.75ZM3.74918 14C3.94809 14 4.13885 14.079 4.27951 14.2197C4.42016 14.3603 4.49918 14.5511 4.49918 14.75V17.25C4.49918 17.4489 4.42016 17.6397 4.27951 17.7803C4.13885 17.921 3.94809 18 3.74918 18C3.55026 18 3.3595 17.921 3.21885 17.7803C3.07819 17.6397 2.99918 17.4489 2.99918 17.25V14.75C2.99918 14.5511 3.07819 14.3603 3.21885 14.2197C3.3595 14.079 3.55026 14 3.74918 14ZM8.49918 11.75C8.49918 11.5511 8.42016 11.3603 8.27951 11.2197C8.13885 11.079 7.94809 11 7.74918 11C7.55026 11 7.3595 11.079 7.21885 11.2197C7.07819 11.3603 6.99918 11.5511 6.99918 11.75V17.25C6.99918 17.4489 7.07819 17.6397 7.21885 17.7803C7.3595 17.921 7.55026 18 7.74918 18C7.94809 18 8.13885 17.921 8.27951 17.7803C8.42016 17.6397 8.49918 17.4489 8.49918 17.25V11.75ZM11.7492 13C11.9481 13 12.1389 13.079 12.2795 13.2197C12.4202 13.3603 12.4992 13.5511 12.4992 13.75V17.25C12.4992 17.4489 12.4202 17.6397 12.2795 17.7803C12.1389 17.921 11.9481 18 11.7492 18C11.5503 18 11.3595 17.921 11.2188 17.7803C11.0782 17.6397 10.9992 17.4489 10.9992 17.25V13.75C10.9992 13.5511 11.0782 13.3603 11.2188 13.2197C11.3595 13.079 11.5503 13 11.7492 13ZM16.4992 9.75C16.4992 9.55109 16.4202 9.36032 16.2795 9.21967C16.1389 9.07902 15.9481 9 15.7492 9C15.5503 9 15.3595 9.07902 15.2188 9.21967C15.0782 9.36032 14.9992 9.55109 14.9992 9.75V17.25C14.9992 17.4489 15.0782 17.6397 15.2188 17.7803C15.3595 17.921 15.5503 18 15.7492 18C15.9481 18 16.1389 17.921 16.2795 17.7803C16.4202 17.6397 16.4992 17.4489 16.4992 17.25V9.75Z" fill="#FE5B14"/>
</svg>
