<svg width="18" height="18" viewBox="0 0 18 18" fill="none" xmlns="http://www.w3.org/2000/svg">
<path d="M3.70231 4.13811C3.86599 4.22754 4.05121 4.2743 4.23955 4.27372C4.42788 4.27315 4.61279 4.22527 4.77588 4.13484C4.93897 4.04441 5.07457 3.91458 5.1692 3.75826C5.26382 3.60193 5.31419 3.42455 5.31529 3.24375H6.40025C6.40127 3.42465 6.45162 3.60215 6.54629 3.75857C6.64096 3.91499 6.77664 4.04489 6.93984 4.13534C7.10304 4.22579 7.28807 4.27363 7.47651 4.27412C7.66495 4.27461 7.85024 4.22771 8.01395 4.13811L8.55643 5.0394C8.85805 4.87761 9.21898 4.77068 9.58642 4.70749C9.56423 4.645 9.5353 4.58389 9.49962 4.52418L8.95063 3.61246C8.80867 3.37587 8.57504 3.20275 8.30068 3.13082C8.02631 3.05889 7.73345 3.09399 7.48593 3.22847C7.48345 2.9554 7.36861 2.69435 7.16645 2.50223C6.9643 2.31011 6.69122 2.2025 6.40676 2.20288H5.31022C4.71711 2.20288 4.23611 2.66117 4.23105 3.22917C3.98346 3.09447 3.69043 3.05924 3.41589 3.13118C3.14135 3.20312 2.90759 3.37638 2.76563 3.61316L2.21736 4.52418C1.92081 5.01718 2.0944 5.64629 2.60361 5.93445C2.35832 6.07295 2.18005 6.29896 2.10769 6.56316C2.03533 6.82737 2.07476 7.10832 2.21736 7.34473L2.76563 8.25644C3.06218 8.74945 3.71605 8.91957 4.23105 8.64043C4.23539 9.06956 4.51169 9.43688 4.90228 9.59034C4.90011 9.19385 5.00354 8.79181 5.2256 8.42379L5.27478 8.34185C5.2291 8.19139 5.14851 8.05282 5.03905 7.93655C4.92959 7.82028 4.79411 7.72933 4.64279 7.67053C4.49146 7.61172 4.32823 7.5866 4.16534 7.59704C4.00245 7.60748 3.84415 7.65321 3.70231 7.7308L3.15983 6.82881C3.87229 6.42885 3.87229 5.44006 3.15983 5.0401L3.70231 4.13811Z" fill="#FE5B14"/>
<path d="M5.8584 6.97595C6.14615 6.97595 6.42211 6.86621 6.62558 6.67088C6.82905 6.47555 6.94336 6.21062 6.94336 5.93438C6.94336 5.65815 6.82905 5.39322 6.62558 5.19789C6.42211 5.00256 6.14615 4.89282 5.8584 4.89282C5.57065 4.89282 5.29468 5.00256 5.09122 5.19789C4.88775 5.39322 4.77344 5.65815 4.77344 5.93438C4.77344 6.21062 4.88775 6.47555 5.09122 6.67088C5.29468 6.86621 5.57065 6.97595 5.8584 6.97595Z" fill="#FE5B14"/>
<path fill-rule="evenodd" clip-rule="evenodd" d="M9.04492 10.8824C9.04492 10.318 9.27849 9.77663 9.69425 9.3775C10.11 8.97838 10.6739 8.75415 11.2619 8.75415C11.8498 8.75415 12.4137 8.97838 12.8295 9.3775C13.2452 9.77663 13.4788 10.318 13.4788 10.8824C13.4788 11.4469 13.2452 11.9882 12.8295 12.3873C12.4137 12.7864 11.8498 13.0107 11.2619 13.0107C10.6739 13.0107 10.11 12.7864 9.69425 12.3873C9.27849 11.9882 9.04492 11.4469 9.04492 10.8824ZM11.2626 9.79641C11.1139 9.79641 10.9667 9.82452 10.8294 9.87913C10.6921 9.93374 10.5673 10.0138 10.4622 10.1147C10.357 10.2156 10.2737 10.3354 10.2168 10.4672C10.1599 10.5991 10.1306 10.7404 10.1306 10.8831C10.1306 11.0258 10.1599 11.1671 10.2168 11.299C10.2737 11.4308 10.357 11.5506 10.4622 11.6515C10.5673 11.7524 10.6921 11.8325 10.8294 11.8871C10.9667 11.9417 11.1139 11.9698 11.2626 11.9698C11.5628 11.9698 11.8507 11.8553 12.063 11.6515C12.2753 11.4477 12.3946 11.1713 12.3946 10.8831C12.3946 10.5949 12.2753 10.3185 12.063 10.1147C11.8507 9.9109 11.5628 9.79641 11.2626 9.79641Z" fill="#FE5B14"/>
<path fill-rule="evenodd" clip-rule="evenodd" d="M6.16428 12.8218C6.0771 12.677 6.02051 12.5172 5.99772 12.3514C5.97493 12.1856 5.9864 12.0171 6.03148 11.8555C6.07655 11.694 6.15434 11.5426 6.26041 11.4099C6.36647 11.2773 6.49873 11.166 6.64962 11.0824C6.6861 11.0621 6.71639 11.0329 6.73744 10.9978C6.75849 10.9627 6.76956 10.9229 6.76956 10.8824C6.76956 10.8419 6.75849 10.8021 6.73744 10.767C6.71639 10.7319 6.6861 10.7028 6.64962 10.6824C6.3452 10.5135 6.12312 10.2355 6.03224 9.90942C5.94136 9.58335 5.98911 9.23598 6.165 8.94372L6.96498 7.61329C7.1409 7.32124 7.43042 7.10818 7.76989 7.02094C8.10937 6.93371 8.47104 6.97943 8.77542 7.14806C8.81197 7.16848 8.85349 7.17928 8.89577 7.17935C8.93806 7.17942 8.97962 7.16878 9.01625 7.14848C9.05288 7.12819 9.08327 7.09897 9.10436 7.06378C9.12545 7.02859 9.13648 6.98868 9.13635 6.94808C9.13635 6.24538 9.72946 5.67529 10.4614 5.67529H12.0621C12.7948 5.67529 13.3879 6.24538 13.3879 6.94808C13.3879 7.12584 13.5883 7.23694 13.7482 7.14806C13.8988 7.06429 14.0652 7.00986 14.2378 6.98791C14.4103 6.96595 14.5857 6.97689 14.7539 7.02011C14.9221 7.06332 15.0797 7.13796 15.2178 7.23975C15.3559 7.34154 15.4717 7.46848 15.5586 7.61329L16.3593 8.9451C16.4464 9.08969 16.503 9.24936 16.5259 9.41496C16.5487 9.58057 16.5372 9.74887 16.4922 9.91023C16.4472 10.0716 16.3695 10.2229 16.2635 10.3554C16.1576 10.4879 16.0254 10.599 15.8747 10.6824C15.838 10.7026 15.8075 10.7317 15.7864 10.7669C15.7652 10.802 15.754 10.8418 15.754 10.8824C15.754 10.923 15.7652 10.9629 15.7864 10.998C15.8075 11.0331 15.838 11.0622 15.8747 11.0824C16.1789 11.2513 16.4008 11.5292 16.4917 11.8551C16.5826 12.181 16.535 12.5282 16.3593 12.8204L15.56 14.1508C15.473 14.2956 15.3571 14.4225 15.219 14.5242C15.0808 14.626 14.9232 14.7006 14.755 14.7439C14.5868 14.7872 14.4114 14.7982 14.2388 14.7764C14.0661 14.7546 13.8997 14.7003 13.7489 14.6168C13.7123 14.5964 13.6707 14.5856 13.6284 14.5856C13.5861 14.5855 13.5445 14.5962 13.5079 14.6164C13.4712 14.6367 13.4408 14.6659 13.4196 14.7011C13.3984 14.7362 13.3872 14.7761 13.3872 14.8167C13.3872 15.5201 12.7941 16.0895 12.0621 16.0895H10.4622C10.1107 16.0895 9.77355 15.9555 9.52493 15.717C9.27631 15.4784 9.13654 15.1549 9.13635 14.8174C9.13634 14.7768 9.12518 14.7369 9.104 14.7018C9.08282 14.6666 9.05237 14.6374 9.01571 14.6171C8.97904 14.5969 8.93746 14.5862 8.89516 14.5863C8.85285 14.5863 8.8113 14.5971 8.77469 14.6175C8.47023 14.786 8.10849 14.8316 7.76901 14.7443C7.42952 14.6569 7.14006 14.4437 6.96426 14.1515L6.16428 12.8218ZM7.1921 11.9844C7.16459 11.9996 7.14048 12.0198 7.12115 12.044C7.10181 12.0681 7.08764 12.0957 7.07944 12.1251C7.07124 12.1545 7.06918 12.1852 7.07337 12.2154C7.07756 12.2456 7.08792 12.2747 7.10385 12.301L7.90383 13.6307C7.97038 13.7418 8.11721 13.7793 8.23294 13.7155C9.11609 13.2259 10.2213 13.8377 10.2213 14.8174C10.2213 14.9445 10.3291 15.048 10.4622 15.048H12.0621C12.126 15.048 12.1873 15.0236 12.2324 14.9802C12.2776 14.9369 12.303 14.8781 12.303 14.8167C12.303 13.8377 13.4075 13.2252 14.2914 13.7148C14.4071 13.7786 14.5539 13.7405 14.6205 13.6301L15.4204 12.2996C15.4522 12.2466 15.4607 12.1836 15.4442 12.1245C15.4276 12.0654 15.3874 12.015 15.3322 11.9844C14.449 11.4949 14.4483 10.2707 15.3322 9.78044C15.3596 9.7654 15.3836 9.74531 15.4028 9.72132C15.422 9.69734 15.4361 9.66993 15.4443 9.64068C15.4524 9.61143 15.4544 9.58093 15.4502 9.55092C15.446 9.52092 15.4356 9.49202 15.4197 9.46589L14.619 8.13477C14.6034 8.10834 14.5825 8.08516 14.5575 8.06656C14.5325 8.04796 14.5038 8.03433 14.4733 8.02644C14.4427 8.01856 14.4109 8.01659 14.3795 8.02064C14.3481 8.0247 14.3179 8.03469 14.2906 8.05006C13.4075 8.54028 12.303 7.92715 12.303 6.94808C12.303 6.88676 12.2776 6.82794 12.2324 6.78458C12.1873 6.74122 12.126 6.71686 12.0621 6.71686H10.4622C10.4305 6.71667 10.3991 6.72253 10.3699 6.73409C10.3406 6.74566 10.314 6.76269 10.2917 6.78421C10.2693 6.80573 10.2517 6.8313 10.2397 6.85943C10.2278 6.88756 10.2217 6.9177 10.222 6.94808C10.222 7.92715 9.11754 8.53959 8.23366 8.04936C8.17839 8.0189 8.11279 8.01071 8.05124 8.02659C7.98969 8.04247 7.9372 8.08112 7.90528 8.13408L7.1053 9.4645C7.08948 9.4908 7.07921 9.51984 7.07508 9.54996C7.07095 9.58008 7.07304 9.61068 7.08123 9.64002C7.08943 9.66936 7.10357 9.69686 7.12284 9.72096C7.14211 9.74505 7.16613 9.76526 7.19354 9.78044C8.07743 10.27 8.07598 11.4955 7.19354 11.9844" fill="#FE5B14"/>
</svg>
