<svg width="111" height="20" viewBox="0 0 111 20" fill="none" xmlns="http://www.w3.org/2000/svg">
<path fill-rule="evenodd" clip-rule="evenodd" d="M25.5062 0.769026H23.0222L23.0228 19.1209H25.5062V0.769026ZM30.1149 6.01547H27.6316V19.1209H30.1149V6.01547ZM30.1149 0.62793H27.6316V3.96792H30.1149V0.62793ZM33.7594 6.01547H31.0906L34.8476 19.1209H37.6188L41.3756 6.01547H38.7476L37.1774 12.223C37.1366 12.3843 36.9894 13.0162 36.7362 14.1167L36.2331 16.2284C35.9359 14.8883 35.6246 13.553 35.2996 12.223L33.7594 6.01547ZM51.5475 10.1113C51.3423 9.23248 51.0409 8.48542 50.6437 7.87089C50.1986 7.18107 49.6347 6.6473 48.9505 6.2718C48.273 5.88769 47.5201 5.69645 46.6926 5.69645C45.1189 5.69645 43.8594 6.31027 42.9153 7.53856C42.4442 8.17312 42.0843 8.92291 41.858 9.74052C41.6253 10.5846 41.5091 11.519 41.5091 12.5427C41.5091 14.7352 41.978 16.4291 42.916 17.6239C43.8666 18.8349 45.1329 19.4408 46.7129 19.4408C48.0678 19.4408 49.1655 19.0615 50.0081 18.3018C50.8497 17.5424 51.4076 16.4166 51.681 14.9234L49.2587 14.6929C49.1425 15.5034 48.875 16.1094 48.4579 16.5099C48.0403 16.9027 47.4519 17.0994 46.6926 17.0994C44.9548 17.0994 44.0654 15.8789 44.0243 13.4388H51.8451L51.8557 13.0038C51.8557 11.9541 51.7527 10.99 51.5475 10.1113ZM44.578 9.19015C45.0163 8.42197 45.7213 8.03786 46.6926 8.03786C47.1644 8.03786 47.5616 8.11861 47.883 8.28087C48.2048 8.44313 48.4824 8.70327 48.7147 9.06166C48.8958 9.33966 49.0346 9.65628 49.1255 9.9959C49.2273 10.3505 49.2896 10.7207 49.3103 11.0964H44.0443C44.1061 10.337 44.2842 9.70134 44.578 9.19015ZM61.504 6.52812C60.7994 5.95588 59.9851 5.67058 59.0617 5.67058H59.0602C58.3903 5.67058 57.7777 5.84065 57.2232 6.18248C56.6778 6.51406 56.2108 7.01665 55.8679 7.64119V0.769026H53.3848V19.1209H55.8687V17.3165C56.1833 17.965 56.6295 18.4989 57.1617 18.8648C57.7162 19.2489 58.3284 19.4408 58.9987 19.4408C59.9296 19.4408 60.7538 19.1634 61.4739 18.6092C62.1917 18.055 62.7492 17.2609 63.146 16.2284C63.5496 15.1875 63.7522 13.968 63.7522 12.5687C63.7522 11.2031 63.553 10.0007 63.1569 8.95974C62.7665 7.91007 62.2154 7.09961 61.504 6.52812ZM60.4464 16.0364C60.0499 16.7873 59.3725 17.1621 58.414 17.1621C57.5514 17.1621 56.9018 16.774 56.4647 15.998C56.0264 15.2219 55.8076 14.087 55.8076 12.5938C55.8076 11.1515 56.0026 10.0258 56.3922 9.21512C56.7894 8.3961 57.4567 7.98683 58.394 7.98683C59.3521 7.98683 60.0326 8.36238 60.4366 9.1125C60.8405 9.85481 61.042 11.0071 61.042 12.5687C61.042 14.1293 60.8439 15.2856 60.4464 16.0364ZM67.7863 0.769026H65.3024V19.1209H67.7863V0.769026ZM71.8099 18.6216C72.6175 19.1679 73.5752 19.4408 74.6841 19.4408C75.7516 19.4408 76.689 19.1548 77.4962 18.584C78.2977 18.0284 78.951 17.1916 79.3746 16.1775C79.8189 15.1366 80.0419 13.9333 80.0419 12.5687C80.0419 11.2549 79.8227 10.0767 79.3848 9.03649C78.9646 8.01034 78.3162 7.15704 77.5169 6.57915C76.7089 5.99031 75.7648 5.69575 74.6841 5.69575C73.5959 5.69575 72.6446 5.99031 71.8306 6.57915C71.0332 7.15464 70.3848 8.00268 69.9624 9.02318C69.5316 10.0555 69.3158 11.2375 69.3158 12.5687C69.3158 13.9851 69.5278 15.2088 69.9522 16.241C70.3648 17.2498 71.0125 18.0796 71.8099 18.6216ZM76.7467 16.0498C76.3295 16.7835 75.6415 17.1503 74.6841 17.1503C74.0339 17.1503 73.5103 16.988 73.1139 16.6636C72.7163 16.3312 72.4289 15.8319 72.2512 15.1663C72.0732 14.4922 71.9845 13.6261 71.9845 12.5679C71.9845 10.9814 72.1935 9.82108 72.6107 9.08752C73.035 8.35377 73.7261 7.98683 74.6841 7.98683C75.6351 7.98683 76.3193 8.35377 76.7369 9.08752C77.1612 9.82108 77.3728 10.9814 77.3728 12.5687C77.3728 14.1552 77.1642 15.3153 76.7467 16.0498ZM83.4291 18.6216C84.2299 19.1679 85.1842 19.4408 86.2932 19.4408C87.1551 19.4408 87.9253 19.2536 88.6024 18.8781C89.2802 18.5025 89.8302 17.9781 90.2549 17.304C90.6804 16.6169 90.9592 15.8064 91.0655 14.9485L88.6741 14.6419C88.51 15.4604 88.2365 16.0709 87.8529 16.4716C87.4701 16.8728 86.9495 17.0735 86.2932 17.0735C85.6225 17.0735 85.0956 16.9027 84.712 16.5609C84.3291 16.2113 84.0621 15.7127 83.9119 15.0637C83.7611 14.4067 83.686 13.5751 83.686 12.5687C83.686 11.5786 83.7611 10.7596 83.9119 10.1113C84.0621 9.45433 84.3253 8.95099 84.7022 8.60079C85.0854 8.2424 85.6154 8.06377 86.2932 8.06377C87.0182 8.06377 87.5557 8.31535 87.9046 8.81864C88.2603 9.31323 88.5138 9.99115 88.6635 10.8536L91.0146 10.3284C90.789 8.92912 90.2787 7.80745 89.4847 6.96326C88.6978 6.11814 87.6341 5.69645 86.2932 5.69645C85.1982 5.69645 84.2507 5.9865 83.4495 6.56655C82.6589 7.13404 82.0199 7.97991 81.6129 8.99802C81.1886 10.0306 80.9758 11.2204 80.9758 12.5687C80.9758 13.9929 81.1844 15.2219 81.602 16.2545C82.0263 17.2867 82.6355 18.0761 83.4291 18.6216ZM94.8741 14.2578L96.034 12.8751L99.1131 19.1209H101.977L97.7174 10.8912L101.844 6.01547H98.6201L94.8741 10.8026V0.769026H92.3899V19.1209H94.8741V14.2578ZM104.153 18.9672C104.852 19.2831 105.628 19.4406 106.483 19.4406C107.79 19.4406 108.867 19.1162 109.717 18.4688C110.572 17.8197 111 16.7614 111 15.2941C111 14.3384 110.801 13.5875 110.405 13.0421C110.008 12.487 109.535 12.0903 108.988 11.8513C108.447 11.6043 107.711 11.3527 106.782 11.0964C106.24 10.9513 105.813 10.815 105.498 10.6872C105.183 10.5586 104.93 10.3924 104.739 10.1879C104.554 9.98241 104.461 9.71827 104.461 9.3945C104.461 8.91656 104.632 8.55432 104.974 8.3066C105.316 8.05883 105.741 7.93505 106.247 7.93505C106.917 7.93505 107.441 8.13578 107.818 8.53701C108.201 8.93843 108.406 9.53964 108.433 10.3415L110.732 9.86812C110.623 8.40066 110.161 7.33858 109.346 6.68088C108.539 6.02478 107.506 5.69556 106.247 5.69556C105.508 5.69556 104.825 5.83595 104.195 6.11814C103.572 6.39084 103.069 6.82198 102.686 7.41153C102.302 7.99943 102.111 8.74155 102.111 9.63771C102.111 10.4653 102.275 11.1347 102.603 11.6466C102.937 12.1639 103.367 12.5723 103.856 12.8366C104.362 13.11 104.998 13.3704 105.765 13.6174L106.402 13.8093C106.826 13.9349 107.247 14.08 107.664 14.2443C107.951 14.3557 108.187 14.5094 108.372 14.7053C108.557 14.9013 108.649 15.1576 108.649 15.4735C108.649 16.0277 108.464 16.4548 108.095 16.7529C107.732 17.0522 107.202 17.2011 106.504 17.2011C105.792 17.2011 105.224 16.9793 104.8 16.5358C104.376 16.092 104.16 15.4524 104.153 14.616L101.814 14.9483C101.84 15.9555 102.063 16.7959 102.481 17.47C102.905 18.1441 103.462 18.6427 104.153 18.9672Z" fill="white" fill-opacity="0.6"/>
<path fill-rule="evenodd" clip-rule="evenodd" d="M12.0571 7.09209H0.214844L3.72367 11.4672V17.483L12.0571 7.09209Z" fill="white" fill-opacity="0.6"/>
<path fill-rule="evenodd" clip-rule="evenodd" d="M5.9167 19.124H17.759L14.2502 14.7489V8.73318L5.9167 19.124Z" fill="white" fill-opacity="0.6"/>
</svg>
