<svg width="88" height="20" viewBox="0 0 88 20" fill="none" xmlns="http://www.w3.org/2000/svg">
<g clip-path="url(#clip0_100_14852)">
<mask id="mask0_100_14852" style="mask-type:luminance" maskUnits="userSpaceOnUse" x="0" y="0" width="87" height="20">
<path d="M86.7289 0.655273H0V19.4139H86.7289V0.655273Z" fill="white"/>
</mask>
<g mask="url(#mask0_100_14852)">
<path d="M24.6523 3.0477H28.5299L31.8193 10.901H31.971L35.2604 3.0477H39.138V15.732H36.089V7.94055H35.9815L32.8693 15.6515H30.921L27.8088 7.89721H27.7013V15.732H24.6523V3.0477ZM40.3784 15.732V6.21874H43.4719V15.732H40.3784ZM41.9281 5.11013C41.4939 5.11013 41.1206 4.96975 40.8086 4.68899C40.4967 4.40407 40.3404 4.06137 40.3404 3.66086C40.3404 3.26447 40.4967 2.92589 40.8086 2.64512C41.1206 2.36022 41.4939 2.21777 41.9281 2.21777C42.3667 2.21777 42.74 2.36022 43.0479 2.64512C43.3599 2.92589 43.5158 3.26447 43.5158 3.66086C43.5158 4.06137 43.3599 4.40407 43.0479 4.68899C42.74 4.96975 42.3667 5.11013 41.9281 5.11013ZM47.8214 10.3065V15.732H44.7279V6.21874H47.6694V7.96531H47.7771C47.9922 7.38313 48.3591 6.92688 48.8773 6.59654C49.3965 6.26212 50.0139 6.09489 50.7309 6.09489C51.4139 6.09489 52.0064 6.24561 52.5084 6.54701C53.0147 6.84429 53.4069 7.26134 53.6852 7.79812C53.9678 8.33077 54.1072 8.95422 54.1029 9.66854V15.732H51.0097V10.2631C51.0135 9.73457 50.8765 9.3217 50.5983 9.02442C50.3238 8.72714 49.9425 8.57848 49.453 8.57848C49.1283 8.57848 48.8419 8.64868 48.5928 8.78904C48.3481 8.92533 48.1589 9.12145 48.0238 9.37746C47.8931 9.63342 47.8254 9.94312 47.8214 10.3065ZM60.7898 6.21874V8.44844H54.6599V6.21874H60.7898ZM55.944 3.93956H59.0372V12.7405C59.0372 12.9263 59.0669 13.077 59.1258 13.1926C59.1891 13.3041 59.2801 13.3846 59.3979 13.4342C59.5157 13.4796 59.657 13.5023 59.8218 13.5023C59.9396 13.5023 60.0641 13.492 60.1949 13.4713C60.3295 13.4466 60.431 13.4259 60.4986 13.4094L60.9665 15.5957C60.819 15.637 60.6102 15.6886 60.3405 15.7505C60.0747 15.8125 59.7566 15.8517 59.385 15.8682C58.6598 15.9012 58.0376 15.8187 57.5194 15.6205C57.0045 15.4182 56.6103 15.1044 56.3363 14.6791C56.0666 14.2538 55.9359 13.7191 55.944 13.075V3.93956ZM64.9568 3.0477V15.732H61.8641V3.0477H64.9568ZM66.2136 15.732V6.21874H69.3063V15.732H66.2136ZM67.7631 5.11013C67.3291 5.11013 66.9555 4.96975 66.6437 4.68899C66.3314 4.40407 66.1753 4.06137 66.1753 3.66086C66.1753 3.26447 66.3314 2.92589 66.6437 2.64512C66.9555 2.36022 67.3291 2.21777 67.7631 2.21777C68.2018 2.21777 68.5749 2.36022 68.8829 2.64512C69.1947 2.92589 69.3509 3.26447 69.3509 3.66086C69.3509 4.06137 69.1947 4.40407 68.8829 4.68899C68.5749 4.96975 68.2018 5.11013 67.7631 5.11013ZM76.0852 6.21874V8.44844H69.8356V6.21874H76.0852ZM71.1384 15.732V5.73566C71.1384 5.00072 71.2797 4.39169 71.5623 3.9086C71.8449 3.42137 72.2376 3.05802 72.7391 2.81854C73.2411 2.57493 73.8206 2.45312 74.4787 2.45312C74.9088 2.45312 75.3136 2.48616 75.6929 2.55222C76.077 2.61416 76.3615 2.6699 76.5469 2.71944L76.0536 4.93673C75.9396 4.89956 75.8007 4.86859 75.6359 4.84383C75.4759 4.81902 75.3241 4.80666 75.1809 4.80666C74.8178 4.80666 74.5692 4.8851 74.4342 5.042C74.2991 5.19892 74.232 5.41362 74.232 5.68613V15.732H71.1384ZM78.7521 19.2994C78.3814 19.2994 78.0307 19.2705 77.7022 19.2127C77.3736 19.159 77.091 19.0868 76.8544 18.9959L77.5379 16.7972C77.8416 16.8964 78.1155 16.9542 78.3598 16.9707C78.6089 16.9872 78.822 16.948 78.9987 16.853C79.1803 16.7622 79.3192 16.5991 79.4164 16.3637L79.5366 16.0788L76.0828 6.21874H79.3216L81.112 13.0068H81.2125L83.0283 6.21874H86.2858L82.6236 16.6424C82.4464 17.1627 82.1954 17.621 81.8706 18.0174C81.5502 18.4178 81.1349 18.7317 80.6244 18.9587C80.1186 19.1859 79.4945 19.2994 78.7521 19.2994Z" fill="white" fill-opacity="0.6"/>
<mask id="mask1_100_14852" style="mask-type:luminance" maskUnits="userSpaceOnUse" x="0" y="0" width="19" height="20">
<path d="M18.882 0.965332H0.277344V19.1813H18.882V0.965332Z" fill="white"/>
</mask>
<g mask="url(#mask1_100_14852)">
<path d="M5.17955 7.61167C5.19258 5.87696 5.89513 4.21547 7.13839 2.97949H7.13614L2.33636 7.67896H2.33865C2.32078 7.69275 2.30394 7.70771 2.28824 7.72384C1.12095 8.86526 0.413243 10.3806 0.294987 11.9917C0.176731 13.6028 0.655869 15.2016 1.64446 16.4948L6.49231 11.7482L6.54269 11.701C5.63917 10.5229 5.15981 9.08487 5.17955 7.61167Z" fill="#8F8F8F"/>
<path d="M16.8348 12.4756C15.9162 13.3571 14.763 13.9681 13.5069 14.239C12.2508 14.5099 10.9421 14.4297 9.73027 14.0077C9.0841 13.7831 8.47686 13.4631 7.92949 13.0588L7.8791 13.1082L3.03125 17.8526C4.3525 18.8181 5.98449 19.2857 7.62894 19.1699C9.27343 19.0542 10.8203 18.3628 11.9869 17.2222L12.035 17.1751L16.8348 12.4756Z" fill="#8F8F8F"/>
<path d="M18.8904 7.6792V1.2754C18.8904 1.10415 18.7486 0.965335 18.5737 0.965335H12.0333C11.1327 0.964452 10.2409 1.13779 9.4089 1.4754C8.57697 1.81301 7.82135 2.30823 7.18547 2.93262L7.13734 2.97973C6.29919 3.81287 5.69947 4.84717 5.39844 5.97887C5.94341 5.84072 6.50342 5.76765 7.0663 5.76132C8.57099 5.74392 10.0393 6.21397 11.2429 7.09825C12.3246 7.88808 13.1433 8.97378 13.5958 10.2185C14.0569 11.4907 14.1176 12.8692 13.7699 14.1755C14.926 13.8813 15.9825 13.294 16.8331 12.4729L16.8812 12.428C17.5191 11.8052 18.0251 11.065 18.3699 10.25C18.7147 9.43505 18.8916 8.56137 18.8904 7.6792Z" fill="white" fill-opacity="0.6"/>
</g>
</g>
</g>
<defs>
<clipPath id="clip0_100_14852">
<rect width="87.1724" height="18.7586" fill="white" transform="translate(0 0.655273)"/>
</clipPath>
</defs>
</svg>
