<svg width="303" height="213" viewBox="0 0 303 213" fill="none" xmlns="http://www.w3.org/2000/svg">
<g clip-path="url(#clip0_100_14970)">
<line x1="-0.244141" y1="75.0609" x2="303.243" y2="75.0609" stroke="url(#paint0_linear_100_14970)" stroke-width="0.790331"/>
<line x1="-0.244141" y1="99.5609" x2="303.243" y2="99.5609" stroke="url(#paint1_linear_100_14970)" stroke-width="0.790331"/>
<line x1="-0.244141" y1="124.061" x2="303.243" y2="124.061" stroke="url(#paint2_linear_100_14970)" stroke-width="0.790331"/>
<line x1="-0.244141" y1="148.562" x2="303.243" y2="148.562" stroke="url(#paint3_linear_100_14970)" stroke-width="0.790331"/>
<line x1="-0.244141" y1="173.062" x2="303.243" y2="173.062" stroke="url(#paint4_linear_100_14970)" stroke-width="0.790331"/>
<line x1="-0.244141" y1="197.562" x2="303.243" y2="197.562" stroke="url(#paint5_linear_100_14970)" stroke-width="0.790331"/>
<g filter="url(#filter0_di_100_14970)">
<path d="M0 13.3025C0 6.16258 5.78806 0.374512 12.928 0.374512H290.072C297.212 0.374512 303 6.16258 303 13.3025V281.005H0V13.3025Z" fill="url(#paint6_linear_100_14970)" shape-rendering="crispEdges"/>
</g>
<g filter="url(#filter1_di_100_14970)">
<rect x="19.3184" y="182.378" width="22.3691" height="98.6275" rx="6.32265" fill="url(#paint7_linear_100_14970)" shape-rendering="crispEdges"/>
</g>
<g filter="url(#filter2_di_100_14970)">
<rect x="53.8887" y="122.388" width="21.3523" height="158.617" rx="6.32265" fill="url(#paint8_linear_100_14970)" shape-rendering="crispEdges"/>
</g>
<g filter="url(#filter3_di_100_14970)">
<rect x="88.459" y="85.7842" width="22.3691" height="195.221" rx="6.32265" fill="url(#paint9_linear_100_14970)" shape-rendering="crispEdges"/>
</g>
<g filter="url(#filter4_di_100_14970)">
<rect x="122.014" y="158.992" width="23.3859" height="122.013" rx="6.32265" fill="url(#paint10_linear_100_14970)"/>
</g>
<g filter="url(#filter5_di_100_14970)">
<rect x="157.602" y="69.5156" width="22.3691" height="211.49" rx="6.32265" fill="url(#paint11_linear_100_14970)" shape-rendering="crispEdges"/>
</g>
<g filter="url(#filter6_di_100_14970)">
<rect x="192.172" y="118.321" width="21.3523" height="162.685" rx="6.32265" fill="url(#paint12_linear_100_14970)" shape-rendering="crispEdges"/>
</g>
<g filter="url(#filter7_di_100_14970)">
<rect x="226.742" y="53.2471" width="22.3691" height="227.758" rx="6.32265" fill="url(#paint13_linear_100_14970)"/>
</g>
<g filter="url(#filter8_di_100_14970)">
<rect x="260.295" y="79.6831" width="23.3859" height="201.322" rx="6.32265" fill="url(#paint14_linear_100_14970)" shape-rendering="crispEdges"/>
</g>
<path d="M55.4423 202.059C55.3979 202.111 55.2944 202.111 55.2057 202.111C54.6806 202.111 54.296 201.771 54.1999 201.342C54.1375 201.076 54.1825 200.797 54.3251 200.564C54.4678 200.332 54.6965 200.165 54.9616 200.1L58.3634 199.234C58.4152 199.19 58.5113 199.19 58.6075 199.19C58.8398 199.17 59.0714 199.236 59.2573 199.377C59.4432 199.518 59.5701 199.723 59.6132 199.952C59.7094 200.188 59.6576 200.477 59.5171 200.721C59.3692 200.958 59.1325 201.15 58.8441 201.202L55.4423 202.059ZM49.6444 199.663C49.4521 200.048 49.1268 200.285 48.683 200.285C48.5721 200.285 48.4612 200.255 48.3207 200.218L48.2098 200.196L45.0002 198.754C44.7635 198.658 44.5713 198.421 44.4752 198.177C44.3932 197.909 44.4089 197.621 44.5195 197.364C44.6025 197.178 44.7375 197.021 44.9081 196.91C45.0788 196.8 45.2778 196.742 45.4809 196.742C45.6288 196.742 45.7619 196.787 45.9098 196.838L49.1194 198.273C49.6444 198.517 49.8885 199.138 49.6444 199.663ZM65.6477 199.523C65.596 199.567 65.4998 199.567 65.4037 199.567C64.9304 199.567 64.4941 199.234 64.3979 198.754C64.3018 198.517 64.3536 198.229 64.4941 197.992C64.642 197.748 64.8786 197.556 65.1671 197.511L68.5689 196.646C68.6132 196.602 68.7168 196.602 68.8055 196.602C69.2862 196.602 69.7151 196.935 69.8113 197.415C69.8737 197.681 69.8287 197.961 69.686 198.193C69.5434 198.426 69.3146 198.593 69.0496 198.658L65.6477 199.523ZM75.8532 196.979C75.8014 197.031 75.7053 197.031 75.6091 197.031C75.1284 197.031 74.6995 196.698 74.6034 196.217C74.5715 196.085 74.5661 195.947 74.5875 195.812C74.609 195.678 74.6568 195.549 74.7283 195.433C74.7997 195.316 74.8934 195.216 75.004 195.136C75.1145 195.056 75.2398 194.999 75.3725 194.968L78.7743 194.11C78.8187 194.058 78.9222 194.058 79.0109 194.058C79.246 194.059 79.4737 194.14 79.6565 194.288C79.8393 194.436 79.9663 194.642 80.0167 194.871C80.0486 195.004 80.054 195.142 80.0325 195.276C80.0111 195.411 79.9633 195.54 79.8918 195.656C79.8204 195.772 79.7267 195.873 79.6161 195.953C79.5055 196.033 79.3803 196.09 79.2476 196.121L75.8458 196.979H75.8532ZM40.112 195.308C39.9197 195.692 39.5869 195.929 39.1506 195.929C39.0766 195.929 39.0027 195.914 38.9287 195.899L38.7734 195.877L35.5639 194.398C35.0388 194.154 34.7948 193.533 35.0388 193.008C35.0956 192.882 35.1765 192.769 35.2771 192.674C35.3777 192.58 35.496 192.506 35.6251 192.457C35.7542 192.408 35.8917 192.385 36.0297 192.39C36.1677 192.394 36.3034 192.426 36.4291 192.483L39.6313 193.917C39.8776 194.032 40.0688 194.24 40.1637 194.494C40.2599 194.783 40.2081 195.064 40.112 195.308ZM86.0512 194.442C86.0068 194.494 85.9033 194.494 85.8146 194.494C85.5854 194.495 85.3624 194.421 85.1804 194.281C84.9984 194.142 84.8677 193.947 84.8088 193.725C84.6609 193.2 85.0011 192.623 85.5705 192.483L88.9723 191.618C89.0241 191.573 89.1202 191.573 89.2164 191.573C89.4487 191.553 89.6803 191.619 89.8662 191.76C90.0521 191.901 90.179 192.106 90.2221 192.335C90.3183 192.571 90.2665 192.86 90.126 193.104C89.9781 193.341 89.7415 193.533 89.4604 193.585L86.0586 194.442H86.0512ZM96.2567 191.906C96.2123 191.95 96.1087 191.95 96.02 191.95C95.5393 191.95 95.1548 191.618 95.0142 191.189C94.971 191.061 94.9573 190.926 94.9739 190.793C94.9906 190.66 95.0372 190.532 95.1104 190.42C95.1805 190.297 95.2762 190.19 95.391 190.107C95.5059 190.024 95.6371 189.967 95.776 189.939L99.1778 189.081C99.2295 189.029 99.3257 189.029 99.4218 189.029C99.8951 188.985 100.28 189.318 100.428 189.798C100.49 190.065 100.444 190.346 100.3 190.578C100.155 190.811 99.9249 190.977 99.6584 191.041L96.2567 191.906ZM30.5351 190.9C30.3428 191.285 30.0101 191.521 29.5738 191.521C29.4332 191.521 29.2927 191.477 29.1448 191.425L25.9353 189.991C25.4102 189.747 25.1662 189.125 25.4102 188.6C25.4932 188.415 25.6282 188.257 25.7989 188.147C25.9695 188.037 26.1685 187.979 26.3716 187.979C26.5121 187.979 26.6526 188.024 26.7931 188.075L30.0101 189.51C30.2629 189.626 30.4594 189.837 30.5564 190.098C30.6535 190.359 30.6432 190.647 30.5277 190.9H30.5351ZM106.506 189.369C106.462 189.414 106.359 189.414 106.27 189.414C105.745 189.414 105.36 189.081 105.264 188.645C105.202 188.379 105.247 188.099 105.389 187.867C105.532 187.634 105.761 187.467 106.026 187.402L109.428 186.537C109.479 186.493 109.575 186.493 109.672 186.493C109.904 186.472 110.136 186.539 110.321 186.68C110.507 186.82 110.634 187.025 110.677 187.254C110.774 187.498 110.722 187.787 110.581 188.024C110.433 188.268 110.197 188.452 109.916 188.504L106.514 189.369H106.506ZM21.0027 186.537C20.8104 186.922 20.4776 187.158 20.0413 187.158C19.8934 187.158 19.7529 187.114 19.6567 187.062L16.4472 185.627C16.1944 185.512 15.9979 185.3 15.9008 185.039C15.8038 184.779 15.8141 184.49 15.9295 184.237C15.9862 184.112 16.067 184 16.1672 183.906C16.2674 183.812 16.3851 183.74 16.5136 183.691C16.642 183.643 16.7787 183.621 16.9158 183.626C17.0529 183.631 17.1877 183.663 17.3124 183.72L20.522 185.147C20.7655 185.263 20.9539 185.47 21.047 185.724C21.1432 186.012 21.0988 186.3 21.0027 186.537ZM116.712 186.826C116.668 186.877 116.564 186.877 116.475 186.877C115.995 186.877 115.558 186.581 115.462 186.16C115.418 185.864 115.462 185.583 115.61 185.346C115.758 185.102 115.943 184.91 116.231 184.866L119.633 184.001C119.677 183.956 119.781 183.956 119.87 183.956C120.35 183.956 120.735 184.237 120.883 184.718C120.972 184.962 120.927 185.243 120.787 185.487C120.639 185.724 120.402 185.916 120.114 185.968L116.712 186.826ZM11.4184 182.181C11.2262 182.566 10.8934 182.803 10.457 182.803C10.3461 182.803 10.2352 182.773 10.0947 182.736L9.98376 182.706L6.77423 181.272C6.53757 181.176 6.34528 180.932 6.24915 180.695C6.16718 180.427 6.18289 180.139 6.29352 179.882C6.3765 179.696 6.51151 179.539 6.68216 179.428C6.85278 179.318 7.05176 179.26 7.25491 179.26C7.39542 179.26 7.53592 179.305 7.68384 179.356L10.8934 180.791C11.0192 180.848 11.1326 180.929 11.2271 181.029C11.3216 181.13 11.3954 181.248 11.4441 181.377C11.4929 181.507 11.5157 181.644 11.5113 181.782C11.5069 181.92 11.4753 182.056 11.4184 182.181ZM1.98209 177.389C1.98209 177.966 1.5014 178.395 0.931976 178.395C0.784058 178.395 0.636169 178.395 0.495636 178.351L-2.7139 176.909C-3.23154 176.672 -3.47562 176.051 -3.23157 175.518C-3.14908 175.334 -3.01523 175.177 -2.84604 175.067C-2.67685 174.957 -2.47946 174.898 -2.27756 174.897C-2.13705 174.897 -1.98914 174.949 -1.84863 174.993L1.3609 176.428C1.74545 176.62 1.98209 176.96 1.98209 177.389ZM-7.69089 173.411C-7.88318 173.795 -8.22333 174.032 -8.65225 174.032C-8.80017 174.032 -8.94067 173.988 -9.08118 173.936L-12.2907 172.501C-12.8232 172.265 -13.0598 171.643 -12.8232 171.111C-12.5791 170.593 -11.9579 170.349 -11.4329 170.593L-8.22336 172.021C-8.09686 172.077 -7.9827 172.157 -7.88742 172.257C-7.79214 172.358 -7.71765 172.476 -7.66815 172.605C-7.61868 172.734 -7.59521 172.872 -7.59912 173.01C-7.60303 173.148 -7.63422 173.285 -7.69089 173.411ZM-17.5118 169.772C-17.6079 170.253 -18.0442 170.586 -18.5175 170.586C-18.5693 170.586 -18.6654 170.586 -18.7098 170.638L-22.1634 169.965C-22.4067 169.915 -22.6252 169.782 -22.7817 169.59C-22.9381 169.397 -23.0228 169.156 -23.0212 168.907C-23.0232 168.769 -22.9974 168.631 -22.9453 168.503C-22.8933 168.375 -22.816 168.258 -22.7181 168.16C-22.6201 168.062 -22.5036 167.985 -22.3753 167.933C-22.247 167.881 -22.1096 167.855 -21.9711 167.857H-21.7788L-18.3252 168.574C-18.0442 168.619 -17.8076 168.767 -17.6597 169.003C-17.5117 169.196 -17.4674 169.484 -17.5118 169.772ZM-27.8133 167.709C-27.9095 168.19 -28.3384 168.523 -28.8191 168.523H-29.0114L-32.4576 167.805C-32.7534 167.761 -32.9826 167.613 -33.1231 167.376C-33.271 167.184 -33.3228 166.896 -33.271 166.607C-33.2219 166.377 -33.0952 166.171 -32.9121 166.023C-32.7291 165.874 -32.5007 165.794 -32.2653 165.794H-32.073L-28.6268 166.511C-28.3384 166.563 -28.1017 166.703 -27.9612 166.947C-27.8133 167.14 -27.769 167.421 -27.8133 167.709ZM-38.0705 165.602C-38.2111 166.082 -38.64 166.415 -39.1207 166.415C-39.2168 166.415 -39.2686 166.415 -39.3573 166.467L-42.8035 165.749C-43.2842 165.653 -43.617 165.224 -43.617 164.744C-43.617 164.167 -43.1437 163.686 -42.5668 163.686H-42.3746L-38.8766 164.404C-38.5882 164.455 -38.3516 164.596 -38.2111 164.84C-38.0631 165.032 -38.0188 165.313 -38.0631 165.602H-38.0705ZM-48.4091 163.302C-48.4091 163.879 -48.8898 164.359 -49.4666 164.359C-49.511 164.359 -49.6145 164.359 -49.7032 164.307L-53.1568 163.59C-53.4378 163.546 -53.6745 163.398 -53.8224 163.161C-53.9703 162.925 -54.0147 162.681 -53.9703 162.392C-53.8224 161.911 -53.3935 161.579 -52.9128 161.579H-52.7205L-49.2743 162.244C-49.0328 162.299 -48.8163 162.432 -48.6595 162.624C-48.5027 162.816 -48.4146 163.054 -48.4091 163.302ZM309.506 152.742L264.705 119.404L195.294 142.255L125.069 184.607L125.12 181.826L192.949 140.961C193.066 140.877 193.196 140.812 193.334 140.769L264.277 117.445C264.571 117.351 264.878 117.304 265.186 117.304C265.667 117.304 266.148 117.4 266.576 117.689L309.506 149.584V152.742Z" fill="#FE5B14"/>
</g>
<defs>
<filter id="filter0_di_100_14970" x="-10.7749" y="-10.4004" width="324.55" height="302.181" filterUnits="userSpaceOnUse" color-interpolation-filters="sRGB">
<feFlood flood-opacity="0" result="BackgroundImageFix"/>
<feColorMatrix in="SourceAlpha" type="matrix" values="0 0 0 0 0 0 0 0 0 0 0 0 0 0 0 0 0 0 127 0" result="hardAlpha"/>
<feMorphology radius="3.59164" operator="erode" in="SourceAlpha" result="effect1_dropShadow_100_14970"/>
<feOffset/>
<feGaussianBlur stdDeviation="7.18328"/>
<feComposite in2="hardAlpha" operator="out"/>
<feColorMatrix type="matrix" values="0 0 0 0 0 0 0 0 0 0 0 0 0 0 0 0 0 0 0.5 0"/>
<feBlend mode="normal" in2="BackgroundImageFix" result="effect1_dropShadow_100_14970"/>
<feBlend mode="normal" in="SourceGraphic" in2="effect1_dropShadow_100_14970" result="shape"/>
<feColorMatrix in="SourceAlpha" type="matrix" values="0 0 0 0 0 0 0 0 0 0 0 0 0 0 0 0 0 0 127 0" result="hardAlpha"/>
<feOffset dy="0.89791"/>
<feGaussianBlur stdDeviation="0.89791"/>
<feComposite in2="hardAlpha" operator="arithmetic" k2="-1" k3="1"/>
<feColorMatrix type="matrix" values="0 0 0 0 0.321569 0 0 0 0 0.317647 0 0 0 0 0.329412 0 0 0 1 0"/>
<feBlend mode="normal" in2="shape" result="effect2_innerShadow_100_14970"/>
</filter>
<filter id="filter1_di_100_14970" x="8.54344" y="171.603" width="43.919" height="120.177" filterUnits="userSpaceOnUse" color-interpolation-filters="sRGB">
<feFlood flood-opacity="0" result="BackgroundImageFix"/>
<feColorMatrix in="SourceAlpha" type="matrix" values="0 0 0 0 0 0 0 0 0 0 0 0 0 0 0 0 0 0 127 0" result="hardAlpha"/>
<feMorphology radius="3.59164" operator="erode" in="SourceAlpha" result="effect1_dropShadow_100_14970"/>
<feOffset/>
<feGaussianBlur stdDeviation="7.18328"/>
<feComposite in2="hardAlpha" operator="out"/>
<feColorMatrix type="matrix" values="0 0 0 0 0 0 0 0 0 0 0 0 0 0 0 0 0 0 0.5 0"/>
<feBlend mode="normal" in2="BackgroundImageFix" result="effect1_dropShadow_100_14970"/>
<feBlend mode="normal" in="SourceGraphic" in2="effect1_dropShadow_100_14970" result="shape"/>
<feColorMatrix in="SourceAlpha" type="matrix" values="0 0 0 0 0 0 0 0 0 0 0 0 0 0 0 0 0 0 127 0" result="hardAlpha"/>
<feOffset dy="0.89791"/>
<feGaussianBlur stdDeviation="0.89791"/>
<feComposite in2="hardAlpha" operator="arithmetic" k2="-1" k3="1"/>
<feColorMatrix type="matrix" values="0 0 0 0 0.321569 0 0 0 0 0.317647 0 0 0 0 0.329412 0 0 0 1 0"/>
<feBlend mode="normal" in2="shape" result="effect2_innerShadow_100_14970"/>
</filter>
<filter id="filter2_di_100_14970" x="43.1138" y="111.613" width="42.9024" height="180.168" filterUnits="userSpaceOnUse" color-interpolation-filters="sRGB">
<feFlood flood-opacity="0" result="BackgroundImageFix"/>
<feColorMatrix in="SourceAlpha" type="matrix" values="0 0 0 0 0 0 0 0 0 0 0 0 0 0 0 0 0 0 127 0" result="hardAlpha"/>
<feMorphology radius="3.59164" operator="erode" in="SourceAlpha" result="effect1_dropShadow_100_14970"/>
<feOffset/>
<feGaussianBlur stdDeviation="7.18328"/>
<feComposite in2="hardAlpha" operator="out"/>
<feColorMatrix type="matrix" values="0 0 0 0 0 0 0 0 0 0 0 0 0 0 0 0 0 0 0.5 0"/>
<feBlend mode="normal" in2="BackgroundImageFix" result="effect1_dropShadow_100_14970"/>
<feBlend mode="normal" in="SourceGraphic" in2="effect1_dropShadow_100_14970" result="shape"/>
<feColorMatrix in="SourceAlpha" type="matrix" values="0 0 0 0 0 0 0 0 0 0 0 0 0 0 0 0 0 0 127 0" result="hardAlpha"/>
<feOffset dy="0.89791"/>
<feGaussianBlur stdDeviation="0.89791"/>
<feComposite in2="hardAlpha" operator="arithmetic" k2="-1" k3="1"/>
<feColorMatrix type="matrix" values="0 0 0 0 0.321569 0 0 0 0 0.317647 0 0 0 0 0.329412 0 0 0 1 0"/>
<feBlend mode="normal" in2="shape" result="effect2_innerShadow_100_14970"/>
</filter>
<filter id="filter3_di_100_14970" x="77.6841" y="75.0093" width="43.919" height="216.772" filterUnits="userSpaceOnUse" color-interpolation-filters="sRGB">
<feFlood flood-opacity="0" result="BackgroundImageFix"/>
<feColorMatrix in="SourceAlpha" type="matrix" values="0 0 0 0 0 0 0 0 0 0 0 0 0 0 0 0 0 0 127 0" result="hardAlpha"/>
<feMorphology radius="3.59164" operator="erode" in="SourceAlpha" result="effect1_dropShadow_100_14970"/>
<feOffset/>
<feGaussianBlur stdDeviation="7.18328"/>
<feComposite in2="hardAlpha" operator="out"/>
<feColorMatrix type="matrix" values="0 0 0 0 0 0 0 0 0 0 0 0 0 0 0 0 0 0 0.5 0"/>
<feBlend mode="normal" in2="BackgroundImageFix" result="effect1_dropShadow_100_14970"/>
<feBlend mode="normal" in="SourceGraphic" in2="effect1_dropShadow_100_14970" result="shape"/>
<feColorMatrix in="SourceAlpha" type="matrix" values="0 0 0 0 0 0 0 0 0 0 0 0 0 0 0 0 0 0 127 0" result="hardAlpha"/>
<feOffset dy="0.89791"/>
<feGaussianBlur stdDeviation="0.89791"/>
<feComposite in2="hardAlpha" operator="arithmetic" k2="-1" k3="1"/>
<feColorMatrix type="matrix" values="0 0 0 0 0.321569 0 0 0 0 0.317647 0 0 0 0 0.329412 0 0 0 1 0"/>
<feBlend mode="normal" in2="shape" result="effect2_innerShadow_100_14970"/>
</filter>
<filter id="filter4_di_100_14970" x="111.239" y="148.217" width="44.9356" height="143.563" filterUnits="userSpaceOnUse" color-interpolation-filters="sRGB">
<feFlood flood-opacity="0" result="BackgroundImageFix"/>
<feColorMatrix in="SourceAlpha" type="matrix" values="0 0 0 0 0 0 0 0 0 0 0 0 0 0 0 0 0 0 127 0" result="hardAlpha"/>
<feMorphology radius="3.59164" operator="erode" in="SourceAlpha" result="effect1_dropShadow_100_14970"/>
<feOffset/>
<feGaussianBlur stdDeviation="7.18328"/>
<feComposite in2="hardAlpha" operator="out"/>
<feColorMatrix type="matrix" values="0 0 0 0 0 0 0 0 0 0 0 0 0 0 0 0 0 0 0.5 0"/>
<feBlend mode="normal" in2="BackgroundImageFix" result="effect1_dropShadow_100_14970"/>
<feBlend mode="normal" in="SourceGraphic" in2="effect1_dropShadow_100_14970" result="shape"/>
<feColorMatrix in="SourceAlpha" type="matrix" values="0 0 0 0 0 0 0 0 0 0 0 0 0 0 0 0 0 0 127 0" result="hardAlpha"/>
<feOffset dy="0.89791"/>
<feGaussianBlur stdDeviation="0.89791"/>
<feComposite in2="hardAlpha" operator="arithmetic" k2="-1" k3="1"/>
<feColorMatrix type="matrix" values="0 0 0 0 0.321569 0 0 0 0 0.317647 0 0 0 0 0.329412 0 0 0 1 0"/>
<feBlend mode="normal" in2="shape" result="effect2_innerShadow_100_14970"/>
</filter>
<filter id="filter5_di_100_14970" x="146.827" y="58.7407" width="43.919" height="233.04" filterUnits="userSpaceOnUse" color-interpolation-filters="sRGB">
<feFlood flood-opacity="0" result="BackgroundImageFix"/>
<feColorMatrix in="SourceAlpha" type="matrix" values="0 0 0 0 0 0 0 0 0 0 0 0 0 0 0 0 0 0 127 0" result="hardAlpha"/>
<feMorphology radius="3.59164" operator="erode" in="SourceAlpha" result="effect1_dropShadow_100_14970"/>
<feOffset/>
<feGaussianBlur stdDeviation="7.18328"/>
<feComposite in2="hardAlpha" operator="out"/>
<feColorMatrix type="matrix" values="0 0 0 0 0 0 0 0 0 0 0 0 0 0 0 0 0 0 0.5 0"/>
<feBlend mode="normal" in2="BackgroundImageFix" result="effect1_dropShadow_100_14970"/>
<feBlend mode="normal" in="SourceGraphic" in2="effect1_dropShadow_100_14970" result="shape"/>
<feColorMatrix in="SourceAlpha" type="matrix" values="0 0 0 0 0 0 0 0 0 0 0 0 0 0 0 0 0 0 127 0" result="hardAlpha"/>
<feOffset dy="0.89791"/>
<feGaussianBlur stdDeviation="0.89791"/>
<feComposite in2="hardAlpha" operator="arithmetic" k2="-1" k3="1"/>
<feColorMatrix type="matrix" values="0 0 0 0 0.321569 0 0 0 0 0.317647 0 0 0 0 0.329412 0 0 0 1 0"/>
<feBlend mode="normal" in2="shape" result="effect2_innerShadow_100_14970"/>
</filter>
<filter id="filter6_di_100_14970" x="181.397" y="107.546" width="42.9024" height="184.234" filterUnits="userSpaceOnUse" color-interpolation-filters="sRGB">
<feFlood flood-opacity="0" result="BackgroundImageFix"/>
<feColorMatrix in="SourceAlpha" type="matrix" values="0 0 0 0 0 0 0 0 0 0 0 0 0 0 0 0 0 0 127 0" result="hardAlpha"/>
<feMorphology radius="3.59164" operator="erode" in="SourceAlpha" result="effect1_dropShadow_100_14970"/>
<feOffset/>
<feGaussianBlur stdDeviation="7.18328"/>
<feComposite in2="hardAlpha" operator="out"/>
<feColorMatrix type="matrix" values="0 0 0 0 0 0 0 0 0 0 0 0 0 0 0 0 0 0 0.5 0"/>
<feBlend mode="normal" in2="BackgroundImageFix" result="effect1_dropShadow_100_14970"/>
<feBlend mode="normal" in="SourceGraphic" in2="effect1_dropShadow_100_14970" result="shape"/>
<feColorMatrix in="SourceAlpha" type="matrix" values="0 0 0 0 0 0 0 0 0 0 0 0 0 0 0 0 0 0 127 0" result="hardAlpha"/>
<feOffset dy="0.89791"/>
<feGaussianBlur stdDeviation="0.89791"/>
<feComposite in2="hardAlpha" operator="arithmetic" k2="-1" k3="1"/>
<feColorMatrix type="matrix" values="0 0 0 0 0.321569 0 0 0 0 0.317647 0 0 0 0 0.329412 0 0 0 1 0"/>
<feBlend mode="normal" in2="shape" result="effect2_innerShadow_100_14970"/>
</filter>
<filter id="filter7_di_100_14970" x="215.967" y="42.4722" width="43.919" height="249.308" filterUnits="userSpaceOnUse" color-interpolation-filters="sRGB">
<feFlood flood-opacity="0" result="BackgroundImageFix"/>
<feColorMatrix in="SourceAlpha" type="matrix" values="0 0 0 0 0 0 0 0 0 0 0 0 0 0 0 0 0 0 127 0" result="hardAlpha"/>
<feMorphology radius="3.59164" operator="erode" in="SourceAlpha" result="effect1_dropShadow_100_14970"/>
<feOffset/>
<feGaussianBlur stdDeviation="7.18328"/>
<feComposite in2="hardAlpha" operator="out"/>
<feColorMatrix type="matrix" values="0 0 0 0 0 0 0 0 0 0 0 0 0 0 0 0 0 0 0.5 0"/>
<feBlend mode="normal" in2="BackgroundImageFix" result="effect1_dropShadow_100_14970"/>
<feBlend mode="normal" in="SourceGraphic" in2="effect1_dropShadow_100_14970" result="shape"/>
<feColorMatrix in="SourceAlpha" type="matrix" values="0 0 0 0 0 0 0 0 0 0 0 0 0 0 0 0 0 0 127 0" result="hardAlpha"/>
<feOffset dy="0.89791"/>
<feGaussianBlur stdDeviation="0.89791"/>
<feComposite in2="hardAlpha" operator="arithmetic" k2="-1" k3="1"/>
<feColorMatrix type="matrix" values="0 0 0 0 0.321569 0 0 0 0 0.317647 0 0 0 0 0.329412 0 0 0 1 0"/>
<feBlend mode="normal" in2="shape" result="effect2_innerShadow_100_14970"/>
</filter>
<filter id="filter8_di_100_14970" x="249.52" y="68.9082" width="44.9356" height="222.872" filterUnits="userSpaceOnUse" color-interpolation-filters="sRGB">
<feFlood flood-opacity="0" result="BackgroundImageFix"/>
<feColorMatrix in="SourceAlpha" type="matrix" values="0 0 0 0 0 0 0 0 0 0 0 0 0 0 0 0 0 0 127 0" result="hardAlpha"/>
<feMorphology radius="3.59164" operator="erode" in="SourceAlpha" result="effect1_dropShadow_100_14970"/>
<feOffset/>
<feGaussianBlur stdDeviation="7.18328"/>
<feComposite in2="hardAlpha" operator="out"/>
<feColorMatrix type="matrix" values="0 0 0 0 0 0 0 0 0 0 0 0 0 0 0 0 0 0 0.5 0"/>
<feBlend mode="normal" in2="BackgroundImageFix" result="effect1_dropShadow_100_14970"/>
<feBlend mode="normal" in="SourceGraphic" in2="effect1_dropShadow_100_14970" result="shape"/>
<feColorMatrix in="SourceAlpha" type="matrix" values="0 0 0 0 0 0 0 0 0 0 0 0 0 0 0 0 0 0 127 0" result="hardAlpha"/>
<feOffset dy="0.89791"/>
<feGaussianBlur stdDeviation="0.89791"/>
<feComposite in2="hardAlpha" operator="arithmetic" k2="-1" k3="1"/>
<feColorMatrix type="matrix" values="0 0 0 0 0.321569 0 0 0 0 0.317647 0 0 0 0 0.329412 0 0 0 1 0"/>
<feBlend mode="normal" in2="shape" result="effect2_innerShadow_100_14970"/>
</filter>
<linearGradient id="paint0_linear_100_14970" x1="-0.244141" y1="75.4561" x2="-0.23858" y2="77.1716" gradientUnits="userSpaceOnUse">
<stop stop-color="white" stop-opacity="0.12"/>
<stop offset="0.3" stop-color="white" stop-opacity="0.06"/>
<stop offset="1" stop-color="white" stop-opacity="0.02"/>
</linearGradient>
<linearGradient id="paint1_linear_100_14970" x1="-0.244141" y1="99.9561" x2="-0.23858" y2="101.672" gradientUnits="userSpaceOnUse">
<stop stop-color="white" stop-opacity="0.12"/>
<stop offset="0.3" stop-color="white" stop-opacity="0.06"/>
<stop offset="1" stop-color="white" stop-opacity="0.02"/>
</linearGradient>
<linearGradient id="paint2_linear_100_14970" x1="-0.244141" y1="124.457" x2="-0.23858" y2="126.172" gradientUnits="userSpaceOnUse">
<stop stop-color="white" stop-opacity="0.12"/>
<stop offset="0.3" stop-color="white" stop-opacity="0.06"/>
<stop offset="1" stop-color="white" stop-opacity="0.02"/>
</linearGradient>
<linearGradient id="paint3_linear_100_14970" x1="-0.244141" y1="148.957" x2="-0.23858" y2="150.673" gradientUnits="userSpaceOnUse">
<stop stop-color="white" stop-opacity="0.12"/>
<stop offset="0.3" stop-color="white" stop-opacity="0.06"/>
<stop offset="1" stop-color="white" stop-opacity="0.02"/>
</linearGradient>
<linearGradient id="paint4_linear_100_14970" x1="-0.244141" y1="173.457" x2="-0.23858" y2="175.173" gradientUnits="userSpaceOnUse">
<stop stop-color="white" stop-opacity="0.12"/>
<stop offset="0.3" stop-color="white" stop-opacity="0.06"/>
<stop offset="1" stop-color="white" stop-opacity="0.02"/>
</linearGradient>
<linearGradient id="paint5_linear_100_14970" x1="-0.244141" y1="197.958" x2="-0.23858" y2="199.673" gradientUnits="userSpaceOnUse">
<stop stop-color="white" stop-opacity="0.12"/>
<stop offset="0.3" stop-color="white" stop-opacity="0.06"/>
<stop offset="1" stop-color="white" stop-opacity="0.02"/>
</linearGradient>
<linearGradient id="paint6_linear_100_14970" x1="0" y1="0.374512" x2="239.675" y2="263.45" gradientUnits="userSpaceOnUse">
<stop stop-color="white" stop-opacity="0.12"/>
<stop offset="0.3" stop-color="white" stop-opacity="0.06"/>
<stop offset="1" stop-color="white" stop-opacity="0.02"/>
</linearGradient>
<linearGradient id="paint7_linear_100_14970" x1="19.3184" y1="182.378" x2="56.3611" y2="190.919" gradientUnits="userSpaceOnUse">
<stop stop-color="white" stop-opacity="0.12"/>
<stop offset="0.3" stop-color="white" stop-opacity="0.06"/>
<stop offset="1" stop-color="white" stop-opacity="0.02"/>
</linearGradient>
<linearGradient id="paint8_linear_100_14970" x1="53.8887" y1="122.388" x2="90.4428" y2="127.391" gradientUnits="userSpaceOnUse">
<stop stop-color="white" stop-opacity="0.12"/>
<stop offset="0.3" stop-color="white" stop-opacity="0.06"/>
<stop offset="1" stop-color="white" stop-opacity="0.02"/>
</linearGradient>
<linearGradient id="paint9_linear_100_14970" x1="88.459" y1="85.7842" x2="126.949" y2="90.2677" gradientUnits="userSpaceOnUse">
<stop stop-color="white" stop-opacity="0.12"/>
<stop offset="0.3" stop-color="white" stop-opacity="0.06"/>
<stop offset="1" stop-color="white" stop-opacity="0.02"/>
</linearGradient>
<linearGradient id="paint10_linear_100_14970" x1="122.014" y1="219.998" x2="145.4" y2="219.998" gradientUnits="userSpaceOnUse">
<stop stop-color="#ED1816"/>
<stop offset="0.633498" stop-color="#F84215"/>
<stop offset="1" stop-color="#FE5B14"/>
</linearGradient>
<linearGradient id="paint11_linear_100_14970" x1="157.602" y1="69.5156" x2="196.168" y2="73.6624" gradientUnits="userSpaceOnUse">
<stop stop-color="white" stop-opacity="0.12"/>
<stop offset="0.3" stop-color="white" stop-opacity="0.06"/>
<stop offset="1" stop-color="white" stop-opacity="0.02"/>
</linearGradient>
<linearGradient id="paint12_linear_100_14970" x1="192.172" y1="118.321" x2="228.759" y2="123.203" gradientUnits="userSpaceOnUse">
<stop stop-color="white" stop-opacity="0.12"/>
<stop offset="0.3" stop-color="white" stop-opacity="0.06"/>
<stop offset="1" stop-color="white" stop-opacity="0.02"/>
</linearGradient>
<linearGradient id="paint13_linear_100_14970" x1="226.742" y1="167.126" x2="249.111" y2="167.126" gradientUnits="userSpaceOnUse">
<stop stop-color="#ED1816"/>
<stop offset="0.633498" stop-color="#F84215"/>
<stop offset="1" stop-color="#FE5B14"/>
</linearGradient>
<linearGradient id="paint14_linear_100_14970" x1="260.295" y1="79.6831" x2="300.519" y2="84.4332" gradientUnits="userSpaceOnUse">
<stop stop-color="white" stop-opacity="0.12"/>
<stop offset="0.3" stop-color="white" stop-opacity="0.06"/>
<stop offset="1" stop-color="white" stop-opacity="0.02"/>
</linearGradient>
<clipPath id="clip0_100_14970">
<rect width="303" height="280.631" fill="white" transform="translate(0 0.374512)"/>
</clipPath>
</defs>
</svg>
