<svg width="20" height="20" viewBox="0 0 20 20" fill="none" xmlns="http://www.w3.org/2000/svg">
<path d="M3.54402 4.31761C3.7326 4.42065 3.94599 4.47452 4.16297 4.47386C4.37996 4.4732 4.59299 4.41804 4.78089 4.31385C4.96879 4.20967 5.12501 4.06009 5.23404 3.87999C5.34306 3.69988 5.40109 3.49552 5.40235 3.28721H6.65235C6.65353 3.49564 6.71154 3.70013 6.82061 3.88034C6.92967 4.06056 7.086 4.21022 7.27402 4.31442C7.46205 4.41863 7.67522 4.47376 7.89233 4.47432C8.10943 4.47488 8.32291 4.42085 8.51151 4.31761L9.13651 5.35601C9.48401 5.16961 9.89985 5.04641 10.3232 4.97361C10.2976 4.90161 10.2643 4.83121 10.2232 4.76241L9.59068 3.71201C9.42712 3.43944 9.15796 3.23997 8.84186 3.1571C8.52576 3.07423 8.18835 3.11468 7.90318 3.26961C7.90032 2.955 7.76802 2.65424 7.53511 2.43289C7.3022 2.21155 6.98758 2.08758 6.65985 2.08801H5.39652C4.71318 2.08801 4.15902 2.61601 4.15318 3.27041C3.86793 3.11522 3.53033 3.07464 3.21403 3.15752C2.89773 3.2404 2.62841 3.44002 2.46485 3.71281L1.83318 4.76241C1.49152 5.33041 1.69152 6.05521 2.27818 6.38721C1.99559 6.54678 1.7902 6.80717 1.70683 7.11156C1.62347 7.41596 1.66889 7.73965 1.83318 8.01201L2.46485 9.06241C2.80652 9.63041 3.55985 9.82641 4.15318 9.50481C4.15818 9.99921 4.47652 10.4224 4.92652 10.5992C4.92402 10.1424 5.04318 9.67921 5.29902 9.25521L5.35568 9.16081C5.30305 8.98747 5.2102 8.82782 5.08409 8.69386C4.95798 8.5599 4.80189 8.45512 4.62755 8.38737C4.45321 8.31962 4.26515 8.29067 4.07748 8.3027C3.88982 8.31473 3.70743 8.36742 3.54402 8.45681L2.91902 7.41761C3.73985 6.95681 3.73985 5.81761 2.91902 5.35681L3.54402 4.31761Z" fill="#FE5B14"/>
<path d="M6.0293 7.58726C6.36082 7.58726 6.67876 7.46083 6.91318 7.23578C7.1476 7.01074 7.2793 6.70552 7.2793 6.38726C7.2793 6.069 7.1476 5.76377 6.91318 5.53873C6.67876 5.31368 6.36082 5.18726 6.0293 5.18726C5.69778 5.18726 5.37983 5.31368 5.14541 5.53873C4.91099 5.76377 4.7793 6.069 4.7793 6.38726C4.7793 6.70552 4.91099 7.01074 5.14541 7.23578C5.37983 7.46083 5.69778 7.58726 6.0293 7.58726Z" fill="#FE5B14"/>
<path fill-rule="evenodd" clip-rule="evenodd" d="M9.69922 12.088C9.69922 11.4377 9.96832 10.814 10.4473 10.3542C10.9263 9.89432 11.576 9.63599 12.2534 9.63599C12.9308 9.63599 13.5805 9.89432 14.0595 10.3542C14.5385 10.814 14.8076 11.4377 14.8076 12.088C14.8076 12.7383 14.5385 13.362 14.0595 13.8218C13.5805 14.2817 12.9308 14.54 12.2534 14.54C11.576 14.54 10.9263 14.2817 10.4473 13.8218C9.96832 13.362 9.69922 12.7383 9.69922 12.088ZM12.2542 10.8368C12.083 10.8368 11.9134 10.8692 11.7551 10.9321C11.5969 10.995 11.4531 11.0872 11.332 11.2035C11.2109 11.3197 11.1149 11.4578 11.0493 11.6097C10.9838 11.7616 10.9501 11.9244 10.9501 12.0888C10.9501 12.2532 10.9838 12.416 11.0493 12.5679C11.1149 12.7198 11.2109 12.8578 11.332 12.9741C11.4531 13.0903 11.5969 13.1826 11.7551 13.2455C11.9134 13.3084 12.083 13.3408 12.2542 13.3408C12.6001 13.3408 12.9318 13.2089 13.1764 12.9741C13.421 12.7393 13.5584 12.4208 13.5584 12.0888C13.5584 11.7567 13.421 11.4383 13.1764 11.2035C12.9318 10.9687 12.6001 10.8368 12.2542 10.8368Z" fill="#FE5B14"/>
<path fill-rule="evenodd" clip-rule="evenodd" d="M6.3808 14.3223C6.28037 14.1555 6.21516 13.9714 6.18891 13.7803C6.16265 13.5893 6.17587 13.3952 6.2278 13.2091C6.27973 13.023 6.36935 12.8485 6.49155 12.6957C6.61375 12.5429 6.76612 12.4146 6.93997 12.3183C6.982 12.2949 7.01689 12.2613 7.04114 12.2209C7.0654 12.1804 7.07816 12.1346 7.07816 12.0879C7.07816 12.0413 7.0654 11.9954 7.04114 11.955C7.01689 11.9146 6.982 11.881 6.93997 11.8575C6.58924 11.663 6.33338 11.3426 6.22868 10.9669C6.12397 10.5913 6.17899 10.1911 6.38163 9.85435L7.3033 8.32155C7.50599 7.98506 7.83954 7.7396 8.23065 7.63909C8.62177 7.53858 9.03845 7.59126 9.38913 7.78555C9.43124 7.80907 9.47908 7.82151 9.5278 7.82159C9.57652 7.82168 9.6244 7.80941 9.6666 7.78603C9.7088 7.76265 9.74382 7.72899 9.76811 7.68844C9.79241 7.6479 9.80512 7.60192 9.80497 7.55515C9.80497 6.74555 10.4883 6.08875 11.3316 6.08875H13.1758C14.02 6.08875 14.7033 6.74555 14.7033 7.55515C14.7033 7.75995 14.9341 7.88795 15.1183 7.78555C15.2919 7.68903 15.4835 7.62632 15.6824 7.60103C15.8812 7.57573 16.0833 7.58834 16.277 7.63813C16.4708 7.68792 16.6524 7.77391 16.8115 7.89118C16.9706 8.00845 17.104 8.1547 17.2041 8.32155L18.1266 9.85594C18.227 10.0225 18.2923 10.2065 18.3185 10.3973C18.3448 10.5881 18.3316 10.782 18.2798 10.9679C18.2279 11.1538 18.1384 11.3281 18.0163 11.4807C17.8942 11.6334 17.742 11.7614 17.5683 11.8575C17.5261 11.8808 17.491 11.9144 17.4665 11.9548C17.4421 11.9953 17.4293 12.0412 17.4293 12.0879C17.4293 12.1347 17.4421 12.1806 17.4665 12.2211C17.491 12.2615 17.5261 12.2951 17.5683 12.3183C17.9188 12.5129 18.1745 12.8331 18.2792 13.2086C18.3839 13.5841 18.329 13.9841 18.1266 14.3207L17.2058 15.8535C17.1055 16.0203 16.972 16.1665 16.8128 16.2838C16.6537 16.401 16.472 16.487 16.2783 16.5368C16.0845 16.5867 15.8824 16.5994 15.6835 16.5743C15.4846 16.5491 15.2929 16.4866 15.1191 16.3903C15.077 16.3669 15.0291 16.3545 14.9803 16.3544C14.9316 16.3544 14.8837 16.3666 14.8415 16.39C14.7992 16.4133 14.7641 16.447 14.7397 16.4875C14.7153 16.528 14.7025 16.5739 14.7025 16.6207C14.7025 17.4311 14.0191 18.0871 13.1758 18.0871H11.3325C10.9275 18.0871 10.5391 17.9328 10.2527 17.6579C9.96622 17.3831 9.80519 17.0103 9.80497 16.6215C9.80495 16.5747 9.7921 16.5288 9.7677 16.4883C9.7433 16.4478 9.70821 16.4141 9.66597 16.3908C9.62373 16.3674 9.57583 16.3552 9.52709 16.3552C9.47834 16.3553 9.43047 16.3677 9.3883 16.3911C9.03752 16.5854 8.62076 16.6379 8.22963 16.5373C7.8385 16.4366 7.50501 16.191 7.30247 15.8543L6.3808 14.3223ZM7.56497 13.3575C7.53328 13.375 7.5055 13.3984 7.48322 13.4262C7.46095 13.454 7.44462 13.4858 7.43517 13.5197C7.42572 13.5536 7.42335 13.5889 7.42817 13.6237C7.433 13.6585 7.44494 13.692 7.4633 13.7223L8.38497 15.2543C8.46163 15.3823 8.6308 15.4255 8.76413 15.3519C9.78163 14.7879 11.055 15.4927 11.055 16.6215C11.055 16.7679 11.1791 16.8871 11.3325 16.8871H13.1758C13.2494 16.8871 13.32 16.8591 13.372 16.8091C13.4241 16.7592 13.4533 16.6914 13.4533 16.6207C13.4533 15.4927 14.7258 14.7871 15.7441 15.3511C15.8775 15.4247 16.0466 15.3807 16.1233 15.2535L17.045 13.7207C17.0815 13.6596 17.0914 13.5871 17.0723 13.519C17.0532 13.4509 17.0069 13.3929 16.9433 13.3575C15.9258 12.7935 15.925 11.3831 16.9433 10.8183C16.9748 10.801 17.0025 10.7779 17.0246 10.7502C17.0468 10.7226 17.063 10.691 17.0724 10.6573C17.0818 10.6236 17.0841 10.5885 17.0793 10.5539C17.0744 10.5194 17.0625 10.4861 17.0441 10.4559L16.1216 8.92234C16.1037 8.8919 16.0796 8.86518 16.0507 8.84376C16.0219 8.82233 15.9889 8.80662 15.9537 8.79754C15.9185 8.78846 15.8818 8.78619 15.8457 8.79086C15.8095 8.79553 15.7747 8.80705 15.7433 8.82475C14.7258 9.38955 13.4533 8.68315 13.4533 7.55515C13.4533 7.48449 13.4241 7.41673 13.372 7.36677C13.32 7.31681 13.2494 7.28875 13.1758 7.28875H11.3325C11.296 7.28853 11.2599 7.29528 11.2261 7.3086C11.1924 7.32193 11.1618 7.34155 11.136 7.36635C11.1103 7.39114 11.0899 7.42059 11.0762 7.45301C11.0624 7.48542 11.0555 7.52014 11.0558 7.55515C11.0558 8.68315 9.7833 9.38874 8.76497 8.82394C8.70128 8.78885 8.62571 8.77942 8.5548 8.79771C8.48388 8.816 8.42341 8.86053 8.38663 8.92155L7.46497 10.4543C7.44673 10.4847 7.4349 10.5181 7.43014 10.5528C7.42539 10.5875 7.4278 10.6228 7.43724 10.6566C7.44668 10.6904 7.46297 10.7221 7.48517 10.7498C7.50737 10.7776 7.53505 10.8009 7.56663 10.8183C8.58497 11.3823 8.5833 12.7943 7.56663 13.3575" fill="#FE5B14"/>
</svg>
