<svg width="137" height="29" viewBox="0 0 137 29" fill="none" xmlns="http://www.w3.org/2000/svg">
<g clip-path="url(#clip0_100_14816)">
<mask id="mask0_100_14816" style="mask-type:luminance" maskUnits="userSpaceOnUse" x="0" y="0" width="137" height="29">
<path d="M136.147 0H0V28.4797H136.147V0Z" fill="white"/>
</mask>
<g mask="url(#mask0_100_14816)">
<path d="M57.6628 14.9488V10.3372C57.9407 10.3372 58.5046 10.3372 58.7463 10.3372C60.0227 10.3372 60.6078 10.9113 60.6078 11.7474C60.6078 13.5169 57.6628 14.9488 57.6628 14.9488ZM62.8797 11.5429C62.8797 9.18336 60.8443 8.21167 58.2176 8.21167H55.3906V20.6103H57.6628V17.6419C58.021 17.3618 58.6989 16.9181 59.348 16.4496L61.3002 20.6103H63.69L61.1125 14.9948C62.0913 14.0342 62.8797 12.8749 62.8797 11.5429Z" fill="white" fill-opacity="0.6"/>
<path d="M86.8507 14.9486V10.3369C87.1284 10.3369 87.6921 10.3369 87.934 10.3369C89.2102 10.3369 89.7958 10.9111 89.7958 11.7472C89.7958 13.5166 86.8507 14.9486 86.8507 14.9486ZM92.0675 11.5426C92.0675 9.18312 90.0322 8.21143 87.4053 8.21143H84.5781V20.6101H86.8507V17.6416C87.2087 17.3616 87.8864 16.9178 88.5357 16.4493L90.488 20.6101H92.8775L90.3 14.9946C91.2792 14.0339 92.0675 12.8747 92.0675 11.5426Z" fill="white" fill-opacity="0.6"/>
<path d="M109.284 14.9486V10.3369C109.562 10.3369 110.126 10.3369 110.368 10.3369C111.644 10.3369 112.229 10.9111 112.229 11.7472C112.229 13.5166 109.284 14.9486 109.284 14.9486ZM114.501 11.5426C114.501 9.18312 112.466 8.21143 109.839 8.21143H107.012V20.6101H109.284V17.6416C109.642 17.3616 110.32 16.9178 110.969 16.4493L112.922 20.6101H115.312L112.734 14.9946C113.713 14.0339 114.501 12.8747 114.501 11.5426Z" fill="white" fill-opacity="0.6"/>
<path d="M42.2945 20.6101L45.256 8.21143H42.9677L41.2006 16.7133H41.1332L39.2655 8.21143H37.3804L35.4957 16.7133H35.4284L33.6949 8.21143H31.3555L34.3176 20.6101H36.4717L38.2891 12.4622H38.3397L40.1569 20.6101H42.2945Z" fill="white" fill-opacity="0.6"/>
<path d="M48.2101 15.916L49.4035 11.0449H49.4552L50.6667 15.916H48.2101ZM48.2101 8.21143L44.6758 20.6101H47.0647L47.7889 17.7766H51.0877L51.8101 20.6101H54.1848L50.7007 8.21143H48.2101Z" fill="white" fill-opacity="0.6"/>
<path d="M71.2013 15.7393L66.7926 8.21169H64.8906V20.6103H67.1625V13.0828H67.2465L71.656 20.6103H73.5573V8.21167H71.2859V15.7393L71.2013 15.7393Z" fill="white" fill-opacity="0.6"/>
<path d="M82.8955 18.396H78.1842V15.2964H81.7181V13.2593H78.1842V10.4255H82.7279V8.21143H75.9121V20.6101H82.8955V18.396Z" fill="white" fill-opacity="0.6"/>
<path d="M120.221 10.1618C121.905 10.1618 122.397 12.3135 122.397 14.4128C122.397 16.5103 121.905 18.6636 120.221 18.6636C118.539 18.6636 118.046 16.5103 118.046 14.4128C118.046 12.3135 118.539 10.1618 120.221 10.1618ZM120.221 20.8776C123.25 20.8776 124.668 17.8603 124.668 14.4129C124.668 10.9691 123.25 7.94629 120.221 7.94629C117.192 7.94629 115.773 10.9691 115.773 14.4129C115.773 17.8603 117.192 20.8776 120.221 20.8776Z" fill="white" fill-opacity="0.6"/>
<path d="M129.92 13.4375C128.994 12.8176 128.06 12.375 128.06 11.3121C128.06 10.6033 128.658 10.0721 129.331 10.0721C130.089 10.0721 130.855 10.6033 131.107 11.0463L132.538 9.62902C131.865 8.65474 130.678 7.94629 129.247 7.94629C127.143 7.94629 125.788 9.27455 125.788 11.3121C125.788 13.5261 127.312 14.5003 128.54 15.2444C129.5 15.8286 130.434 16.2721 130.434 17.3345C130.434 18.2206 129.668 18.7518 128.826 18.7518C127.985 18.7518 127.134 18.2206 126.63 17.4232L125.283 18.8405C126.041 20.0801 127.564 20.8776 128.911 20.8776C131.015 20.8776 132.706 19.4603 132.706 17.3345C132.706 15.1206 131.132 14.2349 129.92 13.4375Z" fill="white" fill-opacity="0.6"/>
<path d="M134.885 18.1318C134.128 18.1318 133.623 18.7517 133.623 19.4601C133.623 20.1687 134.128 20.7885 134.885 20.7885C135.643 20.7885 136.148 20.1687 136.148 19.4601C136.148 18.7517 135.643 18.1318 134.885 18.1318Z" fill="white" fill-opacity="0.6"/>
<path d="M99.7589 18.4141V15.8317C100.501 15.5203 101.323 15.1152 102.076 14.6167C102.429 14.8649 103.211 15.5182 103.211 16.4333C103.211 17.6435 102.159 18.3649 99.7589 18.4141ZM99.7589 10.2817C100.04 10.2817 100.572 10.2817 100.863 10.2817C101.905 10.2817 102.44 10.5696 102.44 11.1905C102.44 12.3081 100.209 13.3059 99.7589 13.4961V10.2817ZM103.6 13.3284C104.21 12.6383 104.608 11.8394 104.608 10.9317C104.608 9.15669 103.168 8.23382 101.101 8.21143H97.4863V20.6101H99.7589C103.458 20.4956 105.365 18.9185 105.365 16.5252C105.365 14.7501 103.945 13.5854 103.6 13.3284Z" fill="white" fill-opacity="0.6"/>
<path d="M25.611 9.28311C25.438 10.6126 24.854 14.9977 21.8689 19.2895C18.8405 23.7211 14.882 25.867 13.6707 26.5201C12.481 25.867 8.50086 23.7211 5.4725 19.2895C2.50905 15.021 1.925 10.636 1.75195 9.28311L3.54734 8.23349V6.78734L5.34272 5.73772V4.29157C7.80866 3.0087 10.5342 2.19233 13.6707 1.72583C16.8072 2.169 19.5327 3.0087 21.9987 4.29157V5.73772L23.794 6.78734V8.23349L25.611 9.28311Z" fill="black"/>
<path d="M25.4165 7.2074V5.76126L23.6212 4.71164V3.19551L22.7126 2.72902C20.0953 1.3995 17.2183 0.513148 13.8872 0.0233249L13.6708 0L13.4545 0.0233249C10.145 0.513148 7.24642 1.3995 4.65068 2.75234L3.74218 3.21884V4.73496L1.9468 5.76126V7.2074L0 8.327L0.151418 9.51657C0.670564 13.5285 2.03332 17.1671 4.19643 20.316C6.38117 23.5115 9.323 26.1239 12.957 28.0832L13.6708 28.4797L14.3847 28.0832C18.0187 26.1239 20.9605 23.5115 23.1453 20.316C25.3084 17.1671 26.6711 13.5285 27.1903 9.51657L27.3417 8.327L25.4165 7.2074ZM25.6112 9.28332C25.4382 10.6128 24.8541 14.9979 21.869 19.2897C18.8407 23.7214 14.8822 25.8673 13.6708 26.5204C12.4811 25.8673 8.50102 23.7214 5.47267 19.2897C2.50921 15.0213 1.92517 10.6362 1.75212 9.28332L3.5475 8.2337V6.78755L5.34288 5.73793V4.29179C7.80882 3.00892 10.5343 2.19254 13.6708 1.72604C16.8074 2.16922 19.5329 3.00892 21.9988 4.29179V5.73793L23.7942 6.78755V8.2337L25.6112 9.28332Z" fill="white" fill-opacity="0.6"/>
<path d="M11.0098 5.22487L11.0963 17.004L11.0098 17.0506C9.86335 13.9017 9.17115 9.98316 8.95484 6.04125C8.39243 6.32115 7.78676 6.64769 7.15946 7.06754C7.41903 10.6363 7.98144 13.7618 8.9981 16.7474L8.41406 17.0973C6.87826 14.7881 5.88323 11.9891 5.21266 8.65364C4.73678 9.12014 4.28252 9.63329 3.80664 10.1931C4.69352 14.1816 6.12117 17.2139 8.17612 19.663L9.75519 18.6367C10.5339 20.3861 11.6155 22.1121 12.8268 23.4882V4.875C12.2211 4.94497 11.6155 5.0616 11.0098 5.22487ZM21.2197 11.3127C21.8686 10.543 21.9984 9.98316 21.9984 9.30674C21.9984 8.35041 21.2629 7.48739 20.1814 6.74099C19.5324 6.29782 18.5374 5.76135 17.0881 5.31817C16.2661 5.08492 15.3793 4.92165 14.4924 4.89833V23.5348C18.1264 21.529 22.431 16.001 22.4526 13.1787C22.4959 12.3157 22.0849 11.7559 21.2197 11.3127ZM16.3094 7.11419C17.1963 7.11419 20.0949 8.09384 20.0949 9.35339C20.0949 9.79656 19.7271 10.4497 18.5807 11.1028L16.3094 12.409V7.11419ZM18.559 17.4471C18.0399 18.0769 17.2179 19.0566 16.3094 19.803V14.4615C16.3094 14.4615 19.5973 12.4789 19.7055 12.3856C20.6789 12.6655 20.6356 13.4352 20.6356 13.5052C20.6356 14.4849 19.7055 16.001 18.559 17.4471Z" fill="white" fill-opacity="0.6"/>
</g>
</g>
<defs>
<clipPath id="clip0_100_14816">
<rect width="136.276" height="28.6897" fill="white"/>
</clipPath>
</defs>
</svg>
