<svg width="32" height="33" viewBox="0 0 32 33" fill="none" xmlns="http://www.w3.org/2000/svg">
<path d="M27 2.87939H5C3.61929 2.87939 2.5 3.99868 2.5 5.37939V20.3794C2.5 21.7601 3.61929 22.8794 5 22.8794H27C28.3807 22.8794 29.5 21.7601 29.5 20.3794V5.37939C29.5 3.99868 28.3807 2.87939 27 2.87939Z" stroke="white" stroke-opacity="0.4" stroke-width="3"/>
<path d="M18 24.3794H14V28.3794H18V24.3794Z" fill="white" fill-opacity="0.4"/>
<path d="M24.5 28.3794H7.5C6.67157 28.3794 6 29.051 6 29.8794C6 30.7078 6.67157 31.3794 7.5 31.3794H24.5C25.3284 31.3794 26 30.7078 26 29.8794C26 29.051 25.3284 28.3794 24.5 28.3794Z" fill="white" fill-opacity="0.4"/>
<g clip-path="url(#clip0_100_14956)">
<path d="M22 9.62939H10C9.17157 9.62939 8.5 10.0025 8.5 10.4627V16.2961C8.5 16.7563 9.17157 17.1294 10 17.1294H22C22.8284 17.1294 23.5 16.7563 23.5 16.2961V10.4627C23.5 10.0025 22.8284 9.62939 22 9.62939Z" stroke="#FE5B14" stroke-width="2"/>
<path d="M13 15.9627V15.3794C13 14.9652 12.6642 14.6294 12.25 14.6294C11.8358 14.6294 11.5 14.9652 11.5 15.3794V15.9627C11.5 16.3769 11.8358 16.7127 12.25 16.7127C12.6642 16.7127 13 16.3769 13 15.9627Z" fill="#FE5B14"/>
<path d="M16.75 15.9629V12.4629C16.75 12.0487 16.4142 11.7129 16 11.7129C15.5858 11.7129 15.25 12.0487 15.25 12.4629V15.9629C15.25 16.3771 15.5858 16.7129 16 16.7129C16.4142 16.7129 16.75 16.3771 16.75 15.9629Z" fill="#FE5B14"/>
<path d="M20.5 15.9629V13.7129C20.5 13.2987 20.1642 12.9629 19.75 12.9629C19.3358 12.9629 19 13.2987 19 13.7129V15.9629C19 16.3771 19.3358 16.7129 19.75 16.7129C20.1642 16.7129 20.5 16.3771 20.5 15.9629Z" fill="#FE5B14"/>
</g>
<defs>
<clipPath id="clip0_100_14956">
<rect width="18" height="10" fill="white" transform="translate(7 8.37939)"/>
</clipPath>
</defs>
</svg>
