<svg width="28" height="28" viewBox="0 0 28 28" fill="none" xmlns="http://www.w3.org/2000/svg">
<path d="M19.4504 10.6065C19.4504 10.0378 19.2334 9.46899 18.7994 9.03503C18.3655 8.60105 17.7967 8.38406 17.2279 8.38406M17.2279 17.2743C20.9103 17.2743 23.8955 14.289 23.8955 10.6066C23.8955 6.92417 20.9103 3.93896 17.2279 3.93896C13.5454 3.93896 10.5602 6.92417 10.5602 10.6066C10.5602 10.9107 10.5806 11.2101 10.62 11.5034C10.6849 11.9859 10.7173 12.2271 10.6955 12.3797C10.6727 12.5387 10.6438 12.6244 10.5654 12.7646C10.4902 12.8992 10.3576 13.0317 10.0925 13.2969L4.41335 18.976C4.22116 19.1682 4.12506 19.2643 4.05634 19.3765C3.99541 19.4759 3.95051 19.5843 3.92328 19.6977C3.89258 19.8256 3.89258 19.9615 3.89258 20.2333V22.1639C3.89258 22.7862 3.89258 23.0974 4.0137 23.3351C4.12024 23.5442 4.29024 23.7142 4.49934 23.8208C4.73706 23.9419 5.04824 23.9419 5.67062 23.9419H8.33767V21.7194H10.5602V19.4968H12.7828L14.5376 17.742C14.8027 17.4768 14.9353 17.3443 15.0699 17.269C15.2101 17.1907 15.2957 17.1617 15.4547 17.139C15.6074 17.1172 15.8486 17.1496 16.331 17.2145C16.6244 17.2539 16.9237 17.2743 17.2279 17.2743Z" stroke="white" stroke-opacity="0.4" stroke-width="2.22255" stroke-linecap="round" stroke-linejoin="round"/>
</svg>
