<svg width="36" height="36" viewBox="0 0 36 36" fill="none" xmlns="http://www.w3.org/2000/svg">
<path d="M29.4757 21.489C27.6577 22.8038 25.4715 23.5119 23.2279 23.5125C22.1781 23.5135 21.134 23.3596 20.1292 23.0556L19.6723 23.5125L16.6376 26.5472C16.3043 26.8806 15.8522 27.068 15.3808 27.0681H14.339C13.8675 27.0681 13.4153 27.2554 13.0819 27.5888C12.7485 27.9222 12.5612 28.3744 12.5612 28.8459C12.5612 29.3174 12.3739 29.7695 12.0405 30.1029C11.7071 30.4363 11.2549 30.6236 10.7834 30.6236C10.3119 30.6236 9.85974 30.8109 9.52634 31.1443C9.19294 31.4777 9.00564 31.9299 9.00564 32.4014C9.00564 32.8729 8.81834 33.3251 8.48494 33.6585C8.15155 33.9919 7.69936 34.1792 7.22786 34.1792H3.67231C3.20081 34.1792 2.74863 33.9919 2.41523 33.6585C2.08183 33.3251 1.89453 32.8729 1.89453 32.4014V27.8041C1.89463 27.3326 2.082 26.8805 2.41542 26.5472L12.5612 16.4014L13.0181 15.9445C12.3663 13.7977 12.4081 11.5 13.1375 9.37824C13.8668 7.25651 15.2467 5.41877 17.0807 4.12645C18.9147 2.83412 21.1095 2.153 23.353 2.17997C25.5964 2.20694 27.7742 2.94063 29.5767 4.27668C31.3791 5.61273 32.7143 7.4831 33.3925 9.62176C34.0706 11.7604 34.0572 14.0585 33.354 16.189C32.6508 18.3196 31.2937 20.1742 29.4757 21.489Z" stroke="white" stroke-opacity="0.4" stroke-width="3" stroke-linecap="round" stroke-linejoin="round"/>
<path d="M27.3098 13.5603C27.3098 12.3198 26.817 11.1302 25.9399 10.2531C25.0628 9.37605 23.8732 8.8833 22.6328 8.8833" stroke="#FE5B14" stroke-width="3" stroke-linecap="round" stroke-linejoin="round"/>
</svg>
