<svg width="32" height="33" viewBox="0 0 32 33" fill="none" xmlns="http://www.w3.org/2000/svg">
<path d="M6.66602 7.31257C6.66602 5.81909 6.66602 5.07236 6.95666 4.50192C7.21233 4.00016 7.62028 3.59221 8.12204 3.33655C8.69247 3.0459 9.43921 3.0459 10.9327 3.0459H21.066C22.5595 3.0459 23.3062 3.0459 23.8767 3.33655C24.3784 3.59221 24.7864 4.00016 25.042 4.50192C25.3327 5.07236 25.3327 5.81909 25.3327 7.31256V25.4459C25.3327 26.9394 25.3327 27.6861 25.042 28.2565C24.7864 28.7583 24.3784 29.1663 23.8767 29.4219C23.3062 29.7126 22.5595 29.7126 21.066 29.7126H10.9327C9.43921 29.7126 8.69247 29.7126 8.12204 29.4219C7.62028 29.1663 7.21233 28.7583 6.95666 28.2565C6.66602 27.6861 6.66602 26.9394 6.66602 25.4459V7.31257Z" stroke="white" stroke-opacity="0.4" stroke-width="4" stroke-linecap="round" stroke-linejoin="round"/>
<rect x="11" y="22.3794" width="10" height="3" rx="1.5" fill="#FE5B14"/>
</svg>
