<svg width="12" height="13" viewBox="0 0 12 13" fill="none" xmlns="http://www.w3.org/2000/svg">
<path d="M11.4531 6.53955C10.5104 6.93018 9.75781 7.28174 9.19531 7.59424C8.63802 7.90674 8.20312 8.21663 7.89062 8.52393C7.58333 8.83122 7.27344 9.26351 6.96094 9.8208C6.64844 10.3781 6.29167 11.1411 5.89062 12.1099H5.57031C5.16406 11.1411 4.80469 10.3781 4.49219 9.8208C4.17969 9.26351 3.8724 8.83122 3.57031 8.52393C3.25781 8.21663 2.82031 7.90674 2.25781 7.59424C1.70052 7.28174 0.947917 6.93018 0 6.53955V6.21924C0.953125 5.82861 1.70833 5.47705 2.26562 5.16455C2.82812 4.85205 3.26302 4.54216 3.57031 4.23486C3.8724 3.92757 4.17969 3.49528 4.49219 2.93799C4.80469 2.3807 5.16406 1.61768 5.57031 0.648926H5.89062C6.29167 1.61768 6.64844 2.3807 6.96094 2.93799C7.27344 3.49528 7.58333 3.92757 7.89062 4.23486C8.19271 4.54216 8.6224 4.85205 9.17969 5.16455C9.74219 5.47705 10.5 5.82861 11.4531 6.21924V6.53955Z" fill="#EFEFEB"/>
</svg>
